<svg width="20" height="21" viewBox="0 0 20 21" fill="none" xmlns="http://www.w3.org/2000/svg">
<path d="M7.08366 16.7956H6.66699C3.33366 16.7956 1.66699 15.9622 1.66699 11.7956V7.62891C1.66699 4.29557 3.33366 2.62891 6.66699 2.62891H13.3337C16.667 2.62891 18.3337 4.29557 18.3337 7.62891V11.7956C18.3337 15.1289 16.667 16.7956 13.3337 16.7956H12.917C12.6587 16.7956 12.4087 16.9206 12.2503 17.1289L11.0003 18.7956C10.4503 19.5289 9.55033 19.5289 9.00033 18.7956L7.75033 17.1289C7.61699 16.9456 7.30866 16.7956 7.08366 16.7956Z" stroke="#C1C2C3" stroke-width="1.25" stroke-miterlimit="10" stroke-linecap="round" stroke-linejoin="round"/>
<path d="M5.83301 7.62891H14.1663" stroke="#C1C2C3" stroke-width="1.25" stroke-linecap="round" stroke-linejoin="round"/>
<path d="M5.83301 11.793H10.833" stroke="#C1C2C3" stroke-width="1.25" stroke-linecap="round" stroke-linejoin="round"/>
</svg>
