<svg width="20" height="21" viewBox="0 0 20 21" fill="none" xmlns="http://www.w3.org/2000/svg">
<path d="M10.1331 10.0206C10.0498 10.0122 9.9498 10.0122 9.85814 10.0206C7.8748 9.95391 6.2998 8.32891 6.2998 6.32891C6.2998 4.28724 7.9498 2.62891 9.9998 2.62891C12.0415 2.62891 13.6998 4.28724 13.6998 6.32891C13.6915 8.32891 12.1165 9.95391 10.1331 10.0206Z" stroke="#C1C2C3" stroke-width="1.25" stroke-linecap="round" stroke-linejoin="round"/>
<path d="M5.9666 13.093C3.94993 14.443 3.94993 16.643 5.9666 17.9846C8.25827 19.518 12.0166 19.518 14.3083 17.9846C16.3249 16.6346 16.3249 14.4346 14.3083 13.093C12.0249 11.568 8.2666 11.568 5.9666 13.093Z" stroke="#C1C2C3" stroke-width="1.25" stroke-linecap="round" stroke-linejoin="round"/>
</svg>
