<svg width="1130" height="1130" viewBox="0 0 1130 1130" fill="none" xmlns="http://www.w3.org/2000/svg">
<g opacity="0.1">
<mask id="path-1-inside-1_12707_31863" fill="white">
<path d="M936.293 230.155C851.197 135.647 733.287 77.1158 606.559 66.4742C479.832 55.8325 353.812 93.8803 254.147 172.874C154.482 251.867 88.6621 365.87 70.0842 491.679C51.5063 617.488 81.566 745.649 154.146 850.077C226.725 954.506 336.37 1027.35 460.764 1053.79C585.159 1080.24 714.954 1058.28 823.734 992.403C932.513 926.524 1012.1 821.669 1046.3 699.181C1080.5 576.692 1066.74 445.774 1007.82 333.073L874.892 402.567C916.135 481.458 925.767 573.101 901.827 658.843C877.888 744.585 822.175 817.983 746.03 864.098C669.884 910.214 579.027 925.581 491.951 907.072C404.875 888.564 328.124 837.57 277.318 764.47C226.512 691.37 205.47 601.658 218.475 513.591C231.48 425.525 277.553 345.723 347.319 290.428C417.084 235.132 505.298 208.499 594.008 215.948C682.717 223.397 765.254 264.369 824.821 330.525L936.293 230.155Z"/>
</mask>
<path id="rotate" style="transform-origin: center; transform-box: fill-box; animation: spin 2s linear infinite;" d="M936.293 230.155C851.197 135.647 733.287 77.1158 606.559 66.4742C479.832 55.8325 353.812 93.8803 254.147 172.874C154.482 251.867 88.6621 365.87 70.0842 491.679C51.5063 617.488 81.566 745.649 154.146 850.077C226.725 954.506 336.37 1027.35 460.764 1053.79C585.159 1080.24 714.954 1058.28 823.734 992.403C932.513 926.524 1012.1 821.669 1046.3 699.181C1080.5 576.692 1066.74 445.774 1007.82 333.073L874.892 402.567C916.135 481.458 925.767 573.101 901.827 658.843C877.888 744.585 822.175 817.983 746.03 864.098C669.884 910.214 579.027 925.581 491.951 907.072C404.875 888.564 328.124 837.57 277.318 764.47C226.512 691.37 205.47 601.658 218.475 513.591C231.48 425.525 277.553 345.723 347.319 290.428C417.084 235.132 505.298 208.499 594.008 215.948C682.717 223.397 765.254 264.369 824.821 330.525L936.293 230.155Z" stroke="#473184" stroke-width="400" stroke-linejoin="round" mask="url(#path-1-inside-1_12707_31863)"/>
</g>
<path opacity="0.1" d="M721.182 586.709L468.276 691.091L506.844 416.659L721.182 586.709Z" fill="#F7CB01"/>
<style>
  @keyframes spin {
  0% {
    transform: rotate(0deg);
  }

  100% {
    transform: rotate(360deg);
  }
}
</style>
</svg>
