<svg width="32" height="33" viewBox="0 0 32 33" fill="none" xmlns="http://www.w3.org/2000/svg">
<path opacity="0.4" d="M24 25.9393H22.9867C21.92 25.9393 20.9067 26.3526 20.16 27.0993L17.88 29.3526C16.84 30.3793 15.1467 30.3793 14.1067 29.3526L11.8267 27.0993C11.08 26.3526 10.0533 25.9393 9 25.9393H8C5.78667 25.9393 4 24.166 4 21.9793V7.43262C4 5.24595 5.78667 3.47266 8 3.47266H24C26.2133 3.47266 28 5.24595 28 7.43262V21.9793C28 24.1527 26.2133 25.9393 24 25.9393Z" fill="#473184"/>
<path d="M13.8403 20.1344H10.267C9.6803 20.1344 9.13363 19.8543 8.78697 19.3743C8.45363 18.921 8.37363 18.3611 8.53363 17.8277C9.0003 16.4011 10.147 15.6277 11.1603 14.9343C12.227 14.2143 12.827 13.761 12.827 12.9877C12.827 12.2944 12.267 11.7344 11.5736 11.7344C10.8803 11.7344 10.3203 12.2944 10.3203 12.9877C10.3203 13.5344 9.86698 13.9877 9.32031 13.9877C8.77365 13.9877 8.32031 13.5344 8.32031 12.9877C8.32031 11.201 9.77363 9.73438 11.5736 9.73438C13.3736 9.73438 14.827 11.1877 14.827 12.9877C14.827 14.8677 13.4136 15.8277 12.2803 16.601C11.5736 17.081 10.907 17.5344 10.5736 18.1344H13.827C14.3736 18.1344 14.827 18.5877 14.827 19.1344C14.827 19.681 14.387 20.1344 13.8403 20.1344Z" fill="#473184"/>
<path d="M21.3871 20.1331C20.8405 20.1331 20.3871 19.6797 20.3871 19.1331V18.213H17.7738C17.7738 18.213 17.7738 18.213 17.7605 18.213C17.1072 18.213 16.5072 17.8664 16.1738 17.3064C15.8405 16.7331 15.8405 16.0264 16.1738 15.4664C17.0805 13.9064 18.1338 12.133 19.0938 10.5863C19.5205 9.90634 20.3338 9.59973 21.0938 9.81307C21.8538 10.0397 22.3872 10.733 22.3738 11.533V16.2264H22.6672C23.2138 16.2264 23.6672 16.6797 23.6672 17.2264C23.6672 17.7731 23.2138 18.2264 22.6672 18.2264H22.3871V19.1464C22.3871 19.6931 21.9471 20.1331 21.3871 20.1331ZM20.3871 12.3064C19.6005 13.5864 18.7871 14.9597 18.0538 16.213H20.3871V12.3064Z" fill="#292D32"/>
</svg>
