<svg width="32" height="33" viewBox="0 0 32 33" fill="none" xmlns="http://www.w3.org/2000/svg">
<path d="M17.7326 11.6019L19.4926 15.1219C19.7326 15.6019 20.3726 16.0819 20.906 16.1619L24.0926 16.6952C26.1326 17.0419 26.6126 18.5085 25.146 19.9752L22.666 22.4552C22.2526 22.8685 22.0126 23.6819 22.146 24.2685L22.8527 27.3485C23.4127 29.7752 22.1193 30.7219 19.9727 29.4552L16.986 27.6819C16.4393 27.3619 15.5593 27.3619 15.0127 27.6819L12.026 29.4552C9.87929 30.7219 8.58595 29.7752 9.14595 27.3485L9.85266 24.2685C9.98599 23.6952 9.74597 22.8819 9.33264 22.4552L6.85266 19.9752C5.38599 18.5085 5.86596 17.0285 7.90596 16.6952L11.0926 16.1619C11.626 16.0685 12.266 15.6019 12.506 15.1219L14.266 11.6019C15.2127 9.69521 16.786 9.69521 17.7326 11.6019Z" fill="#473184"/>
<path opacity="0.4" d="M8 13.7865C7.45333 13.7865 7 13.3331 7 12.7865V3.45313C7 2.90646 7.45333 2.45312 8 2.45312C8.54667 2.45312 9 2.90646 9 3.45313V12.7865C9 13.3331 8.54667 13.7865 8 13.7865Z" fill="#473184"/>
<path opacity="0.4" d="M24 13.7865C23.4533 13.7865 23 13.3331 23 12.7865V3.45313C23 2.90646 23.4533 2.45312 24 2.45312C24.5467 2.45312 25 2.90646 25 3.45313V12.7865C25 13.3331 24.5467 13.7865 24 13.7865Z" fill="#292D32"/>
<path opacity="0.4" d="M16 7.11979C15.4533 7.11979 15 6.66646 15 6.11979V3.45313C15 2.90646 15.4533 2.45312 16 2.45312C16.5467 2.45312 17 2.90646 17 3.45313V6.11979C17 6.66646 16.5467 7.11979 16 7.11979Z" fill="#292D32"/>
</svg>
