<svg width="32" height="33" viewBox="0 0 32 33" fill="none" xmlns="http://www.w3.org/2000/svg">
<path opacity="0.4" d="M14.6134 3.60289L7.28007 6.34956C5.88007 6.88289 4.7334 8.53623 4.7334 10.0429V20.8429C4.7334 21.9229 5.44007 23.3496 6.30673 23.9896L13.6401 29.4696C14.9334 30.4429 17.0534 30.4429 18.3467 29.4696L25.6801 23.9896C26.5467 23.3362 27.2534 21.9229 27.2534 20.8429V10.0429C27.2534 8.54956 26.1067 6.88289 24.7067 6.36289L17.3734 3.61623C16.6267 3.32289 15.3734 3.32289 14.6134 3.60289Z" fill="#473184"/>
<path d="M15.9993 22.4557C12.506 22.4557 9.66602 19.6157 9.66602 16.1224C9.66602 12.6291 12.506 9.78906 15.9993 9.78906C19.4927 9.78906 22.3327 12.6291 22.3327 16.1224C22.3327 19.6157 19.4927 22.4557 15.9993 22.4557ZM15.9993 11.7891C13.6127 11.7891 11.666 13.7357 11.666 16.1224C11.666 18.5091 13.6127 20.4557 15.9993 20.4557C18.386 20.4557 20.3327 18.5091 20.3327 16.1224C20.3327 13.7357 18.386 11.7891 15.9993 11.7891Z" fill="#473184"/>
<path d="M14.6665 18.4554C14.3332 18.4554 13.9998 18.2821 13.8132 17.9754C13.5332 17.4954 13.6798 16.8821 14.1598 16.6021L15.1732 15.9887C15.2798 15.9221 15.3332 15.8154 15.3332 15.7087V14.4688C15.3332 13.9221 15.7865 13.4688 16.3332 13.4688C16.8798 13.4688 17.3332 13.9087 17.3332 14.4554V15.6954C17.3332 16.5088 16.8932 17.2821 16.1998 17.6954L15.1732 18.3088C15.0265 18.4154 14.8398 18.4554 14.6665 18.4554Z" fill="#292D32"/>
</svg>
