<svg width="20" height="20" viewBox="0 0 20 20" fill="none" xmlns="http://www.w3.org/2000/svg">
<path d="M12.4541 3.12503C13.5137 3.41 14.4797 3.96836 15.2556 4.7442C16.0314 5.52004 16.5898 6.48611 16.8748 7.54566" stroke="white" stroke-width="1.07143" stroke-linecap="round" stroke-linejoin="round"/>
<path d="M11.8075 5.54057C12.4431 5.71156 13.0226 6.04653 13.488 6.51194C13.9534 6.97735 14.2884 7.55686 14.4594 8.19244" stroke="white" stroke-width="1.07143" stroke-linecap="round" stroke-linejoin="round"/>
<path d="M7.22497 9.75121C7.87309 11.0767 8.94732 12.1463 10.2756 12.7887C10.3728 12.8348 10.4804 12.8547 10.5877 12.8465C10.6951 12.8382 10.7984 12.8022 10.8875 12.7418L12.8437 11.4381C12.9301 11.3804 13.0295 11.3451 13.133 11.3355C13.2365 11.3259 13.3407 11.3423 13.4362 11.3831L17.0956 12.9518C17.2199 13.0046 17.3237 13.0964 17.3913 13.2133C17.4589 13.3302 17.4868 13.4659 17.4706 13.6C17.3548 14.5049 16.9131 15.3367 16.2282 15.9395C15.5434 16.5423 14.6623 16.8749 13.75 16.875C10.932 16.875 8.22953 15.7555 6.23696 13.763C4.24438 11.7704 3.12497 9.06788 3.12497 6.24995C3.12505 5.33766 3.45764 4.45668 4.06047 3.77194C4.6633 3.08719 5.49504 2.64564 6.39997 2.52995C6.53404 2.51378 6.66974 2.54161 6.78664 2.60924C6.90353 2.67688 6.99529 2.78066 7.04809 2.90495L8.61809 6.56745C8.65847 6.66209 8.67486 6.76522 8.66581 6.86771C8.65676 6.9702 8.62255 7.06886 8.56622 7.15495L7.26622 9.14121C7.20721 9.23065 7.1724 9.33386 7.16517 9.44077C7.15794 9.54767 7.17854 9.65463 7.22497 9.75121V9.75121Z" stroke="white" stroke-width="1.07143" stroke-linecap="round" stroke-linejoin="round"/>
</svg>
