<svg width="66" height="65" viewBox="0 0 66 65" fill="none" xmlns="http://www.w3.org/2000/svg">
<path d="M50.9991 14.3661C50.3446 14.5643 49.9692 15.274 50.1607 15.9514C50.6319 17.6179 50.8709 19.359 50.8709 21.126C50.8709 29.2182 47.6348 33.391 44.7795 37.0724C43.2406 39.0568 41.7768 40.9459 41.0419 43.2022H37.7087L39.644 31.6406H41.8697C42.5518 31.6406 43.1047 31.0685 43.1047 30.3627C43.1047 29.657 42.5518 29.0849 41.8697 29.0849H24.1349C23.4528 29.0849 22.8999 29.657 22.8999 30.3627C22.8999 31.0685 23.4528 31.6406 24.1349 31.6406H26.3604L28.2928 43.2022H24.9625C24.2275 40.9457 22.7631 39.0564 21.2236 37.072C18.3674 33.3905 15.1301 29.2178 15.1301 21.126C15.1301 10.9358 23.1468 2.6455 33.0005 2.6455C37.1846 2.6455 41.2521 4.17103 44.4536 6.9412C44.9769 7.39392 45.7557 7.32195 46.1933 6.78066C46.6308 6.23925 46.5614 5.4334 46.0381 4.98068C42.393 1.82672 37.7628 0.0898438 33.0005 0.0898438C21.7848 0.0898438 12.6602 9.52662 12.6602 21.126C12.6602 30.1167 16.3404 34.8603 19.2975 38.6718C20.6799 40.4537 21.9024 42.0329 22.5307 43.7585C21.358 44.4675 20.5681 45.7828 20.5681 47.2863C20.5681 49.0143 21.6117 50.4941 23.0808 51.0895C22.8189 51.6352 22.6709 52.2492 22.6709 52.8987C22.6709 54.6552 23.7486 56.1562 25.2559 56.7316V60.3413C25.2559 62.6803 27.0972 64.5833 29.3605 64.5833H36.6404C38.9036 64.5833 40.745 62.6803 40.745 60.3413V56.7316C42.2523 56.1561 43.33 54.6552 43.33 52.8987C43.33 52.2495 43.1821 51.6356 42.9204 51.09C44.3913 50.4949 45.4362 49.0148 45.4362 47.2863C45.4362 45.7834 44.6462 44.4686 43.4733 43.7594C44.1013 42.0336 45.3236 40.4541 46.7056 38.672C49.6617 34.8604 53.3406 30.1168 53.3406 21.126C53.3406 19.116 53.0681 17.1335 52.5309 15.2337C52.3397 14.5563 51.6535 14.1675 50.9991 14.3661ZM28.8668 31.6406H37.1372L35.2019 43.2022H30.7992L28.8668 31.6406ZM39.3817 54.427H38.1603C37.4782 54.427 36.9253 54.9991 36.9253 55.7049C36.9253 56.4106 37.4782 56.9827 38.1603 56.9827H38.2752V60.3411C38.2752 61.271 37.5419 62.0275 36.6405 62.0275H29.3606C28.4592 62.0275 27.726 61.271 27.726 60.3411V56.9609C28.302 56.8527 28.7392 56.3321 28.7392 55.7047C28.7392 54.999 28.1863 54.4269 27.5042 54.4269H26.6194C25.804 54.4269 25.1408 53.7413 25.1408 52.8985C25.1408 52.0556 25.804 51.37 26.6194 51.37H39.3817C40.197 51.37 40.8602 52.0556 40.8602 52.8985C40.8602 53.7413 40.197 54.427 39.3817 54.427ZM41.4845 48.8145H39.3817H26.6194H24.5165C23.7012 48.8145 23.038 48.1289 23.038 47.2862C23.038 46.4434 23.7012 45.7577 24.5165 45.7577H29.7541C29.7554 45.7577 29.7568 45.7578 29.7581 45.7578C29.7595 45.7578 29.7609 45.7577 29.7623 45.7577H36.2386C36.2399 45.7577 36.2414 45.7578 36.2428 45.7578C36.2441 45.7578 36.2455 45.7577 36.2468 45.7577H41.4843C42.3015 45.7577 42.9663 46.4433 42.9663 47.2862C42.9664 48.1289 42.3016 48.8145 41.4845 48.8145Z" fill="#473184"/>
<path d="M64.1462 22.9102H60.3968C59.7882 22.9102 59.2949 23.5765 59.2949 24.3985C59.2949 25.2205 59.7882 25.8868 60.3968 25.8868H64.1462C64.7548 25.8868 65.2482 25.2205 65.2482 24.3985C65.2482 23.5765 64.7548 22.9102 64.1462 22.9102Z" fill="#473184"/>
<path d="M60.4212 10.0118C60.7093 10.0118 60.9974 9.9019 61.2173 9.68208L63.9259 6.97404C64.3659 6.53428 64.366 5.82097 63.9263 5.38099C63.4864 4.9409 62.7734 4.94067 62.3337 5.38054L59.625 8.08847C59.185 8.52822 59.1849 9.24154 59.6246 9.68152C59.8445 9.90168 60.1329 10.0118 60.4212 10.0118Z" fill="#473184"/>
<path d="M61.2172 35.1462C60.7772 34.7063 60.0642 34.7065 59.6246 35.1466C59.1849 35.5866 59.185 36.2999 59.625 36.7397L62.3337 39.4477C62.5536 39.6675 62.8417 39.7774 63.1298 39.7774C63.4181 39.7774 63.7064 39.6673 63.9263 39.4472C64.366 39.0073 64.3659 38.2939 63.9259 37.8542L61.2172 35.1462Z" fill="#473184"/>
<path d="M5.60522 22.9102H1.85583C1.24723 22.9102 0.753906 23.5765 0.753906 24.3984C0.753906 25.2204 1.24723 25.8868 1.85583 25.8868H5.60522C6.21382 25.8868 6.70714 25.2204 6.70714 24.3984C6.70714 23.5765 6.21382 22.9102 5.60522 22.9102Z" fill="#473184"/>
<path d="M4.40039 9.68206C4.66425 9.9019 5.00998 10.0118 5.35572 10.0118C5.70172 10.0118 6.04772 9.90167 6.31158 9.68161C6.83916 9.24161 6.83902 8.52827 6.31104 8.08849L3.06061 5.38056C2.53263 4.94067 1.677 4.94089 1.14942 5.38101C0.621844 5.82101 0.622112 6.53424 1.14996 6.97402L4.40039 9.68206Z" fill="#473184"/>
<path d="M4.40041 35.1461L1.15001 37.8542C0.622029 38.2939 0.621895 39.0073 1.14947 39.4472C1.41346 39.6673 1.75932 39.7774 2.10532 39.7774C2.45105 39.7774 2.79678 39.6675 3.06064 39.4477L6.31104 36.7397C6.83902 36.3 6.83915 35.5867 6.31158 35.1467C5.78387 34.7065 4.92812 34.7064 4.40041 35.1461Z" fill="#473184"/>
<path d="M48.7198 11.4415C49.0122 11.8064 49.4423 11.9962 49.8764 11.9962C50.2006 11.9962 50.5272 11.8902 50.8001 11.6723C51.4383 11.1625 51.5417 10.2325 51.0312 9.59502L51.0146 9.57421C50.5041 8.93689 49.5726 8.83357 48.9344 9.3434C48.2961 9.85323 48.1927 10.7832 48.7032 11.4207L48.7198 11.4415Z" fill="#473184"/>
</svg>
