<svg width="24" height="24" viewBox="0 0 24 24" fill="none" xmlns="http://www.w3.org/2000/svg">
<g clip-path="url(#clip0_15_8019)">
<path d="M11.0502 1.99902V8.41302C9.66532 8.15581 8.23477 8.33174 6.95343 8.91686C5.6721 9.50198 4.60227 10.4678 3.88964 11.6829C3.17702 12.8979 2.85625 14.3031 2.97103 15.7071C3.0858 17.111 3.63053 18.4454 4.53104 19.5286C5.43154 20.6118 6.64404 21.391 8.0034 21.7603C9.36275 22.1295 10.8029 22.0708 12.1276 21.592C13.4524 21.1133 14.5974 20.2379 15.4067 19.0849C16.216 17.932 16.6502 16.5576 16.6502 15.149V11.413C17.7252 11.8702 18.8821 12.1036 20.0502 12.099H21.0502V6.49902H20.0502C19.5958 6.49703 19.1464 6.4044 18.7282 6.22655C18.3101 6.0487 17.9316 5.78921 17.615 5.46328C17.2984 5.13734 17.0499 4.7515 16.8843 4.32837C16.7186 3.90523 16.6391 3.45329 16.6502 2.99902V1.99902H11.0502ZM13.0502 3.99902H14.7382C14.921 5.08622 15.4321 6.09145 16.2029 6.87962C16.9738 7.66779 17.9674 8.20115 19.0502 8.40802V10.027C18.0296 9.87047 17.0576 9.48483 16.2072 8.89902L14.6502 7.86202V15.149C14.6502 16.1083 14.3658 17.046 13.8329 17.8435C13.3 18.6411 12.5425 19.2628 11.6563 19.6298C10.77 19.9969 9.79487 20.093 8.85406 19.9058C7.91325 19.7187 7.04906 19.2568 6.37078 18.5785C5.69249 17.9002 5.23058 17.036 5.04344 16.0952C4.8563 15.1544 4.95235 14.1792 5.31943 13.293C5.68652 12.4068 6.30815 11.6493 7.10573 11.1164C7.90331 10.5835 8.84101 10.299 9.80025 10.299C9.88425 10.299 9.96758 10.301 10.0502 10.305V11.905C9.96758 11.899 9.88425 11.8957 9.80025 11.895C9.15763 11.895 8.52943 12.0855 7.99506 12.4425C7.46069 12.7994 7.04413 13.3068 6.79802 13.9004C6.55192 14.494 6.48733 15.1473 6.61241 15.7776C6.73748 16.4079 7.04662 16.987 7.50074 17.4417C7.95486 17.8964 8.53358 18.2062 9.16376 18.3321C9.79393 18.4579 10.4473 18.3941 11.0412 18.1488C11.6351 17.9034 12.143 17.4875 12.5006 16.9535C12.8582 16.4196 13.0495 15.7916 13.0502 15.149C13.0502 11.4324 13.0502 7.71569 13.0502 3.99902ZM8.55025 15.149C8.55025 14.9018 8.62356 14.6601 8.76091 14.4546C8.89826 14.249 9.09348 14.0888 9.32189 13.9942C9.5503 13.8996 9.80163 13.8748 10.0441 13.923C10.2866 13.9713 10.5093 14.0903 10.6841 14.2651C10.8589 14.44 10.978 14.6627 11.0262 14.9052C11.0745 15.1476 11.0497 15.399 10.9551 15.6274C10.8605 15.8558 10.7003 16.051 10.4947 16.1884C10.2891 16.3257 10.0475 16.399 9.80025 16.399C9.46873 16.399 9.15078 16.2673 8.91636 16.0329C8.68194 15.7985 8.55025 15.4805 8.55025 15.149Z" fill="white"/>
</g>
<defs>
<clipPath id="clip0_15_8019">
<rect width="24" height="24" fill="white" transform="translate(0 -0.000976562)"/>
</clipPath>
</defs>
</svg>
