<svg width="25" height="24" viewBox="0 0 25 24" fill="none" xmlns="http://www.w3.org/2000/svg">
<g clip-path="url(#clip0_8_1626)">
<path d="M7.58665 18.4938L8.31165 18.9168C9.99146 19.8934 11.9693 20.2252 13.8758 19.8503C15.7824 19.4755 17.4873 18.4196 18.6724 16.8797C19.8574 15.3398 20.4415 13.4213 20.3156 11.4824C20.1897 9.5434 19.3625 7.71652 17.9883 6.34281C16.6141 4.9691 14.787 4.14247 12.8479 4.01727C10.9089 3.89206 8.99062 4.47683 7.45117 5.66239C5.91173 6.84796 4.85639 8.55328 4.48219 10.46C4.10798 12.3666 4.4405 14.3443 5.41765 16.0238L5.83965 16.7478L5.18665 19.1478L7.58665 18.4938ZM2.33765 21.9998L3.68965 17.0308C2.46766 14.9315 2.05153 12.4593 2.51896 10.0756C2.9864 7.69201 4.30544 5.56001 6.22978 4.07775C8.15412 2.59549 10.5522 1.86432 12.9762 2.02078C15.4002 2.17724 17.6843 3.21062 19.4021 4.92797C21.12 6.64531 22.154 8.92919 22.3111 11.3531C22.4682 13.7771 21.7377 16.1753 20.256 18.1001C18.7743 20.0248 16.6426 21.3445 14.2591 21.8126C11.8756 22.2807 9.40325 21.8652 7.30365 20.6438L2.33765 21.9998ZM8.72465 7.30781C8.85787 7.29992 8.99144 7.29992 9.12465 7.30781C9.17865 7.30781 9.23265 7.31781 9.28665 7.32381C9.3673 7.33085 9.44508 7.35713 9.51347 7.40046C9.58185 7.44379 9.63884 7.50289 9.67965 7.57281C9.97765 8.24947 10.267 8.92981 10.5477 9.61381C10.575 9.70422 10.5808 9.79977 10.5647 9.89283C10.5485 9.98589 10.5109 10.0739 10.4547 10.1498C10.3736 10.2787 10.2858 10.4032 10.1917 10.5228C10.0787 10.6678 9.83565 10.9338 9.83565 10.9338C9.80689 10.9709 9.78654 11.0138 9.77601 11.0596C9.76547 11.1054 9.76501 11.1529 9.77465 11.1988C9.79976 11.2693 9.83334 11.3364 9.87465 11.3988L9.93365 11.4938C10.2174 11.9588 10.5603 12.385 10.9537 12.7618C11.0737 12.8788 11.1907 12.9978 11.3167 13.1078C11.7849 13.5206 12.3146 13.858 12.8867 14.1078H12.8917L13.1437 14.2168C13.206 14.2433 13.2702 14.2654 13.3357 14.2828C13.3593 14.2887 13.3834 14.2924 13.4077 14.2938C13.4655 14.2968 13.5232 14.2854 13.5756 14.2606C13.6279 14.2358 13.6733 14.1985 13.7077 14.1518C13.9568 13.8276 14.2221 13.5162 14.5027 13.2188C14.553 13.1719 14.6127 13.1364 14.6779 13.1145C14.7431 13.0926 14.8122 13.0848 14.8807 13.0918C14.9417 13.0945 15.0017 13.1084 15.0577 13.1328C15.5897 13.3758 16.4577 13.7538 16.4577 13.7538L17.0397 14.0148C17.0911 14.0395 17.1356 14.0766 17.1689 14.1229C17.2023 14.1692 17.2235 14.2232 17.2307 14.2798C17.2376 14.404 17.2329 14.5285 17.2167 14.6518C17.188 14.9036 17.1247 15.1503 17.0287 15.3848C16.9753 15.4952 16.9048 15.5965 16.8197 15.6848C16.7184 15.7908 16.6076 15.8872 16.4887 15.9728C16.4067 16.0338 16.3637 16.0628 16.3637 16.0628C16.2247 16.1508 16.1467 16.1938 15.9807 16.2818C15.7233 16.4189 15.4389 16.4978 15.1477 16.5128C14.9627 16.5269 14.7771 16.5312 14.5917 16.5258L14.0237 16.4388C12.6022 16.067 11.287 15.3689 10.1827 14.3998C9.95665 14.1998 9.74765 13.9858 9.53465 13.7738C8.71991 12.9844 8.05276 12.0558 7.56465 11.0318C7.35594 10.5901 7.24281 10.1093 7.23265 9.62081C7.22904 9.01388 7.42785 8.42307 7.79765 7.94181C7.87539 7.83226 7.96273 7.72985 8.05865 7.63581C8.14484 7.54611 8.24353 7.46932 8.35165 7.40781C8.46794 7.34958 8.59483 7.31556 8.72465 7.30781Z" fill="#fff"/>
</g>
<defs>
<clipPath id="clip0_8_1626">
<rect width="24" height="24" fill="white" transform="translate(0.333496)"/>
</clipPath>
</defs>
</svg>
