<svg width="1366" height="360" viewBox="0 0 1366 360" fill="none" xmlns="http://www.w3.org/2000/svg">
<mask id="mask0_33_2776" style="mask-type:luminance" maskUnits="userSpaceOnUse" x="0" y="0" width="1366" height="575">
<path d="M1366 0H0V574.221H1366V0Z" fill="white"/>
</mask>
<g mask="url(#mask0_33_2776)">
<path d="M54.5441 14.4017V85.645H87.9426V88.4365H51.9009C51.8515 66.1544 51.7774 43.8723 51.728 21.5655C46.3922 26.679 41.0563 31.7925 35.7205 36.8814V45.6262C34.7818 46.1697 33.8678 46.6884 32.929 47.2319V36.2144C40.1423 28.927 47.3309 21.6643 54.5441 14.377V14.4017Z" fill="#71675E" fill-opacity="0.05"/>
<path d="M32.9291 55.2358C33.8678 54.717 34.7818 54.1735 35.7205 53.6548V88.4613H0V85.571H32.9291V55.2358Z" fill="#71675E" fill-opacity="0.05"/>
<path d="M87.9426 0V82.4091H57.2862V41.6739C56.8168 41.4763 56.3475 41.2787 55.9028 41.0563V38.2649C57.2862 38.7837 58.6943 39.3024 60.0776 39.8459V79.3706H85.1511V2.5197H2.98906V79.3953H26.6792V52.8644C32.015 50.147 37.3756 47.4297 42.7114 44.7124V85.6205H45.4782V33.2996L50.3446 35.5229C50.3446 36.5357 50.3446 37.5485 50.3446 38.5613L48.2449 37.6226V88.4613H39.8953V49.4553L29.4459 54.6924V82.1868H0V0H87.9426Z" fill="#71675E" fill-opacity="0.05"/>
<path d="M138.831 153.455V82.2114H172.229V79.4199H136.187C136.138 101.702 136.064 123.984 136.015 146.291C130.679 141.177 125.343 136.064 120.007 130.975V122.23C119.068 121.687 118.154 121.168 117.216 120.624V131.642C124.429 138.929 131.617 146.192 138.831 153.479V153.455Z" fill="#71675E" fill-opacity="0.05"/>
<path d="M117.216 112.645C118.154 113.164 119.068 113.708 120.007 114.226V79.4199H84.2865V82.3102H117.216V112.645Z" fill="#71675E" fill-opacity="0.05"/>
<path d="M172.229 167.857V85.4476H141.573V126.183C141.103 126.38 140.634 126.578 140.189 126.8V129.592C141.573 129.073 142.981 128.554 144.364 128.011V88.4861H169.438V165.362H87.2509V88.4861H110.941V115.017C116.277 117.734 121.637 120.452 126.973 123.169V82.261H129.74V134.607L134.606 132.383C134.606 131.37 134.606 130.358 134.606 129.345L132.507 130.284V79.4448H124.157V118.451L113.708 113.214V85.7194H84.2865V167.906H172.229V167.857Z" fill="#71675E" fill-opacity="0.05"/>
<path d="M251.476 14.4017V85.645H284.875V88.4365H248.833C248.784 66.1544 248.71 43.8723 248.66 21.5655C243.324 26.679 237.988 31.7925 232.653 36.8814V45.6262C231.714 46.1697 230.8 46.6884 229.861 47.2319V36.2144C237.074 28.927 244.263 21.6643 251.476 14.377V14.4017Z" fill="#71675E" fill-opacity="0.05"/>
<path d="M229.861 55.2358C230.8 54.717 231.714 54.1735 232.653 53.6548V88.4613H196.932V85.571H229.861V55.2358Z" fill="#71675E" fill-opacity="0.05"/>
<path d="M284.875 0V82.4091H254.218V41.6739C253.749 41.4763 253.28 41.2787 252.835 41.0563V38.2649C254.218 38.7837 255.626 39.3024 257.01 39.8459V79.3706H282.083V2.5197H199.896V79.3953H223.587V52.8644C228.922 50.147 234.283 47.4297 239.619 44.7124V85.6205H242.386V33.2996L247.252 35.5229C247.252 36.5357 247.252 37.5485 247.252 38.5613L245.152 37.6226V88.4613H236.803V49.4553L226.353 54.6924V82.1868H196.932V0H284.875Z" fill="#71675E" fill-opacity="0.05"/>
<path d="M335.763 153.455V82.2114H369.161V79.4199H333.12C333.07 101.702 332.996 123.984 332.947 146.291C327.611 141.177 322.275 136.064 316.939 130.975V122.23C316 121.687 315.086 121.168 314.148 120.624V131.642C321.361 138.929 328.549 146.192 335.763 153.479V153.455Z" fill="#71675E" fill-opacity="0.05"/>
<path d="M314.148 112.645C315.086 113.164 316 113.708 316.939 114.226V79.4199H281.219V82.3102H314.148V112.645Z" fill="#71675E" fill-opacity="0.05"/>
<path d="M369.161 167.857V85.4476H338.505V126.183C338.035 126.38 337.566 126.578 337.121 126.8V129.592C338.505 129.073 339.913 128.554 341.296 128.011V88.4861H366.37V165.362H284.183V88.4861H307.873V115.017C313.209 117.734 318.569 120.452 323.905 123.169V82.261H326.672V134.607L331.539 132.383C331.539 131.37 331.539 130.358 331.539 129.345L329.439 130.284V79.4448H321.089V118.451L310.64 113.214V85.7194H281.219V167.906H369.161V167.857Z" fill="#71675E" fill-opacity="0.05"/>
<path d="M448.408 14.4017V85.645H481.807V88.4365H445.765C445.716 66.1544 445.642 43.8723 445.592 21.5655C440.256 26.679 434.92 31.7925 429.585 36.8814V45.6262C428.646 46.1697 427.732 46.6884 426.793 47.2319V36.2144C434.006 28.927 441.195 21.6643 448.408 14.377V14.4017Z" fill="#71675E" fill-opacity="0.05"/>
<path d="M426.793 55.2358C427.732 54.717 428.646 54.1735 429.585 53.6548V88.4613H393.864V85.571H426.793V55.2358Z" fill="#71675E" fill-opacity="0.05"/>
<path d="M481.807 0V82.4091H451.15V41.6739C450.681 41.4763 450.212 41.2787 449.767 41.0563V38.2649C451.15 38.7837 452.558 39.3024 453.942 39.8459V79.3706H479.015V2.5197H396.828V79.3953H420.519V52.8644C425.854 50.147 431.215 47.4297 436.551 44.7124V85.6205H439.318V33.2996L444.184 35.5229C444.184 36.5357 444.184 37.5485 444.184 38.5613L442.084 37.6226V88.4613H433.735V49.4553L423.285 54.6924V82.1868H393.864V0H481.807Z" fill="#71675E" fill-opacity="0.05"/>
<path d="M532.695 153.455V82.2114H566.093V79.4199H530.052C530.002 101.702 529.928 123.984 529.879 146.291C524.543 141.177 519.207 136.064 513.871 130.975V122.23C512.932 121.687 512.018 121.168 511.08 120.624V131.642C518.293 138.929 525.482 146.192 532.695 153.479V153.455Z" fill="#71675E" fill-opacity="0.05"/>
<path d="M511.08 112.645C512.018 113.164 512.932 113.708 513.871 114.226V79.4199H478.151V82.3102H511.08V112.645Z" fill="#71675E" fill-opacity="0.05"/>
<path d="M566.093 167.857V85.4476H535.437V126.183C534.967 126.38 534.498 126.578 534.053 126.8V129.592C535.437 129.073 536.845 128.554 538.228 128.011V88.4861H563.302V165.362H481.115V88.4861H504.805V115.017C510.141 117.734 515.502 120.452 520.837 123.169V82.261H523.604V134.607L528.471 132.383C528.471 131.37 528.471 130.358 528.471 129.345L526.371 130.284V79.4448H518.021V118.451L507.572 113.214V85.7194H478.151V167.906H566.093V167.857Z" fill="#71675E" fill-opacity="0.05"/>
<path d="M645.34 14.4017V85.645H678.739V88.4365H642.697C642.648 66.1544 642.574 43.8723 642.524 21.5655C637.188 26.679 631.853 31.7925 626.517 36.8814V45.6262C625.578 46.1697 624.664 46.6884 623.725 47.2319V36.2144C630.939 28.927 638.127 21.6643 645.34 14.377V14.4017Z" fill="#71675E" fill-opacity="0.05"/>
<path d="M623.725 55.2358C624.664 54.717 625.578 54.1735 626.517 53.6548V88.4613H590.796V85.571H623.725V55.2358Z" fill="#71675E" fill-opacity="0.05"/>
<path d="M678.739 0V82.4091H648.082V41.6739C647.613 41.4763 647.144 41.2787 646.699 41.0563V38.2649C648.082 38.7837 649.49 39.3024 650.874 39.8459V79.3706H675.947V2.5197H593.761V79.3953H617.451V52.8644C622.787 50.147 628.147 47.4297 633.483 44.7124V85.6205H636.25V33.2996L641.116 35.5229C641.116 36.5357 641.116 37.5485 641.116 38.5613L639.016 37.6226V88.4613H630.667V49.4553L620.217 54.6924V82.1868H590.796V0H678.739Z" fill="#71675E" fill-opacity="0.05"/>
<path d="M729.627 153.455V82.2114H763.025V79.4199H726.984C726.934 101.702 726.86 123.984 726.811 146.291C721.475 141.177 716.139 136.064 710.803 130.975V122.23C709.864 121.687 708.95 121.168 708.012 120.624V131.642C715.225 138.929 722.414 146.192 729.627 153.479V153.455Z" fill="#71675E" fill-opacity="0.05"/>
<path d="M707.987 112.645C708.926 113.164 709.84 113.708 710.779 114.226V79.4199H675.058V82.3102H707.987V112.645Z" fill="#71675E" fill-opacity="0.05"/>
<path d="M763.025 167.857V85.4476H732.369V126.183C731.9 126.38 731.43 126.578 730.986 126.8V129.592C732.369 129.073 733.777 128.554 735.16 128.011V88.4861H760.234V165.362H678.047V88.4861H701.737V115.017C707.073 117.734 712.434 120.452 717.769 123.169V82.261H720.536V134.607L725.403 132.383C725.403 131.37 725.403 130.358 725.403 129.345L723.303 130.284V79.4448H714.953V118.451L704.504 113.214V85.7194H675.083V167.906H763.025V167.857Z" fill="#71675E" fill-opacity="0.05"/>
<path d="M842.272 14.4017V85.645H875.671V88.4365H839.629C839.58 66.1544 839.506 43.8723 839.456 21.5655C834.121 26.679 828.785 31.7925 823.449 36.8814V45.6262C822.51 46.1697 821.596 46.6884 820.657 47.2319V36.2144C827.871 28.927 835.059 21.6643 842.272 14.377V14.4017Z" fill="#71675E" fill-opacity="0.05"/>
<path d="M820.657 55.2358C821.596 54.717 822.51 54.1735 823.449 53.6548V88.4613H787.728V85.571H820.657V55.2358Z" fill="#71675E" fill-opacity="0.05"/>
<path d="M875.671 0V82.4091H845.014V41.6739C844.545 41.4763 844.076 41.2787 843.631 41.0563V38.2649C845.014 38.7837 846.423 39.3024 847.806 39.8459V79.3706H872.879V2.5197H790.693V79.3953H814.383V52.8644C819.719 50.147 825.079 47.4297 830.415 44.7124V85.6205H833.182V33.2996L838.048 35.5229C838.048 36.5357 838.048 37.5485 838.048 38.5613L835.948 37.6226V88.4613H827.599V49.4553L817.15 54.6924V82.1868H787.728V0H875.671Z" fill="#71675E" fill-opacity="0.05"/>
<path d="M926.559 153.455V82.2114H959.957V79.4199H923.916C923.866 101.702 923.792 123.984 923.743 146.291C918.407 141.177 913.071 136.064 907.735 130.975V122.23C906.797 121.687 905.883 121.168 904.944 120.624V131.642C912.157 138.929 919.346 146.192 926.559 153.479V153.455Z" fill="#71675E" fill-opacity="0.05"/>
<path d="M904.919 112.645C905.858 113.164 906.772 113.708 907.711 114.226V79.4199H871.99V82.3102H904.919V112.645Z" fill="#71675E" fill-opacity="0.05"/>
<path d="M959.957 167.857V85.4476H929.301V126.183C928.832 126.38 928.362 126.578 927.918 126.8V129.592C929.301 129.073 930.709 128.554 932.093 128.011V88.4861H957.166V165.362H874.979V88.4861H898.669V115.017C904.005 117.734 909.366 120.452 914.702 123.169V82.261H917.468V134.607L922.335 132.383C922.335 131.37 922.335 130.358 922.335 129.345L920.235 130.284V79.4448H911.886V118.451L901.436 113.214V85.7194H872.015V167.906H959.957V167.857Z" fill="#71675E" fill-opacity="0.05"/>
<path d="M1039.2 14.4017V85.645H1072.6V88.4365H1036.56C1036.51 66.1544 1036.44 43.8723 1036.39 21.5655C1031.05 26.679 1025.72 31.7925 1020.38 36.8814V45.6262C1019.44 46.1697 1018.53 46.6884 1017.59 47.2319V36.2144C1024.8 28.927 1031.99 21.6643 1039.2 14.377V14.4017Z" fill="#71675E" fill-opacity="0.05"/>
<path d="M1017.59 55.2358C1018.53 54.717 1019.44 54.1735 1020.38 53.6548V88.4613H984.66V85.571H1017.59V55.2358Z" fill="#71675E" fill-opacity="0.05"/>
<path d="M1072.6 0V82.4091H1041.95V41.6739C1041.48 41.4763 1041.01 41.2787 1040.56 41.0563V38.2649C1041.95 38.7837 1043.35 39.3024 1044.74 39.8459V79.3706H1069.81V2.5197H987.625V79.3953H1011.31V52.8644C1016.65 50.147 1022.01 47.4297 1027.35 44.7124V85.6205H1030.11V33.2996L1034.98 35.5229C1034.98 36.5357 1034.98 37.5485 1034.98 38.5613L1032.88 37.6226V88.4613H1024.53V49.4553L1014.08 54.6924V82.1868H984.66V0H1072.6Z" fill="#71675E" fill-opacity="0.05"/>
<path d="M1123.47 153.455V82.2114H1156.86V79.4199H1120.82C1120.77 101.702 1120.7 123.984 1120.65 146.291C1115.31 141.177 1109.98 136.064 1104.64 130.975V122.23C1103.7 121.687 1102.79 121.168 1101.85 120.624V131.642C1109.06 138.929 1116.25 146.192 1123.47 153.479V153.455Z" fill="#71675E" fill-opacity="0.05"/>
<path d="M1101.85 112.645C1102.79 113.164 1103.7 113.708 1104.64 114.226V79.4199H1068.92V82.3102H1101.85V112.645Z" fill="#71675E" fill-opacity="0.05"/>
<path d="M1156.89 167.857V85.4476H1126.23V126.183C1125.76 126.38 1125.29 126.578 1124.85 126.8V129.592C1126.23 129.073 1127.64 128.554 1129.02 128.011V88.4861H1154.1V165.362H1071.91V88.4861H1095.6V115.017C1100.94 117.734 1106.3 120.452 1111.63 123.169V82.261H1114.4V134.607L1119.27 132.383C1119.27 131.37 1119.27 130.358 1119.27 129.345L1117.17 130.284V79.4448H1108.82V118.451L1098.37 113.214V85.7194H1068.95V167.906H1156.89V167.857Z" fill="#71675E" fill-opacity="0.05"/>
<path d="M1236.14 14.4017V85.645H1269.53V88.4365H1233.49C1233.44 66.1544 1233.37 43.8723 1233.32 21.5655C1227.98 26.679 1222.65 31.7925 1217.31 36.8814V45.6262C1216.37 46.1697 1215.46 46.6884 1214.52 47.2319V36.2144C1221.73 28.927 1228.92 21.6643 1236.14 14.377V14.4017Z" fill="#71675E" fill-opacity="0.05"/>
<path d="M1214.52 55.2358C1215.46 54.717 1216.37 54.1735 1217.31 53.6548V88.4613H1181.59V85.571H1214.52V55.2358Z" fill="#71675E" fill-opacity="0.05"/>
<path d="M1269.53 0V82.4091H1238.88V41.6739C1238.41 41.4763 1237.94 41.2787 1237.5 41.0563V38.2649C1238.88 38.7837 1240.29 39.3024 1241.67 39.8459V79.3706H1266.74V2.5197H1184.56V79.3953H1208.25V52.8644C1213.58 50.147 1218.94 47.4297 1224.28 44.7124V85.6205H1227.05V33.2996L1231.91 35.5229C1231.91 36.5357 1231.91 37.5485 1231.91 38.5613L1229.81 37.6226V88.4613H1221.46V49.4553L1211.01 54.6924V82.1868H1181.59V0H1269.53Z" fill="#71675E" fill-opacity="0.05"/>
<path d="M1320.4 153.455V82.2114H1353.8V79.4199H1317.76C1317.71 101.702 1317.63 123.984 1317.58 146.291C1312.25 141.177 1306.91 136.064 1301.57 130.975V122.23C1300.64 121.687 1299.72 121.168 1298.78 120.624V131.642C1306 138.929 1313.19 146.192 1320.4 153.479V153.455Z" fill="#71675E" fill-opacity="0.05"/>
<path d="M1298.78 112.645C1299.72 113.164 1300.64 113.708 1301.57 114.226V79.4199H1265.85V82.3102H1298.78V112.645Z" fill="#71675E" fill-opacity="0.05"/>
<path d="M1353.82 167.857V85.4476H1323.17V126.183C1322.7 126.38 1322.23 126.578 1321.78 126.8V129.592C1323.17 129.073 1324.57 128.554 1325.96 128.011V88.4861H1351.03V165.362H1268.84V88.4861H1292.53V115.017C1297.87 117.734 1303.23 120.452 1308.57 123.169V82.261H1311.33V134.607L1316.2 132.383C1316.2 131.37 1316.2 130.358 1316.2 129.345L1314.1 130.284V79.4448H1305.75V118.451L1295.3 113.214V85.7194H1265.88V167.906H1353.82V167.857Z" fill="#71675E" fill-opacity="0.05"/>
<path d="M54.5441 206.986V278.229H87.9426V281.021H51.9009C51.8515 258.739 51.7774 236.457 51.728 214.15C46.3922 219.264 41.0563 224.377 35.7205 229.466V238.211C34.7818 238.754 33.8678 239.273 32.929 239.816V228.799C40.1423 221.511 47.3309 214.249 54.5441 206.961V206.986Z" fill="#71675E" fill-opacity="0.05"/>
<path d="M32.9291 247.795C33.8678 247.277 34.7818 246.733 35.7205 246.214V281.021H0V278.131H32.9291V247.795Z" fill="#71675E" fill-opacity="0.05"/>
<path d="M87.9426 192.56V274.969H57.2862V234.234C56.8168 234.036 56.3475 233.838 55.9028 233.616V230.825C57.2862 231.343 58.6943 231.862 60.0776 232.406V271.93H85.1511V195.055H2.98906V271.93H26.6792V245.399C32.015 242.682 37.3756 239.965 42.7114 237.247V278.155H45.4782V225.81L50.3446 228.033C50.3446 229.046 50.3446 230.059 50.3446 231.072L48.2449 230.133V280.972H39.8953V241.966L29.4459 247.203V274.697H0V192.51H87.9426V192.56Z" fill="#71675E" fill-opacity="0.05"/>
<path d="M138.831 346.014V274.771H172.229V271.979H136.187C136.138 294.262 136.064 316.544 136.015 338.85C130.679 333.737 125.343 328.623 120.007 323.535V314.79C119.068 314.246 118.154 313.728 117.216 313.184V324.202C124.429 331.489 131.617 338.752 138.831 346.039V346.014Z" fill="#71675E" fill-opacity="0.05"/>
<path d="M117.216 305.205C118.154 305.724 119.068 306.267 120.007 306.786V271.979H84.2865V274.87H117.216V305.205Z" fill="#71675E" fill-opacity="0.05"/>
<path d="M172.229 360.441V278.032H141.573V318.767C141.103 318.964 140.634 319.162 140.189 319.384V322.176C141.573 321.657 142.981 321.138 144.364 320.595V281.07H169.438V357.946H87.2509V281.07H110.941V307.601C116.277 310.318 121.637 313.036 126.973 315.753V274.845H129.74V327.191L134.606 324.967C134.606 323.954 134.606 322.942 134.606 321.929L132.507 322.868V272.029H124.157V311.035L113.708 305.798V278.303H84.2865V360.49H172.229V360.441Z" fill="#71675E" fill-opacity="0.05"/>
<path d="M251.476 206.986V278.229H284.875V281.021H248.833C248.784 258.739 248.71 236.457 248.66 214.15C243.324 219.264 237.988 224.377 232.653 229.466V238.211C231.714 238.754 230.8 239.273 229.861 239.816V228.799C237.074 221.511 244.263 214.249 251.476 206.961V206.986Z" fill="#71675E" fill-opacity="0.05"/>
<path d="M229.861 247.795C230.8 247.277 231.714 246.733 232.653 246.214V281.021H196.932V278.131H229.861V247.795Z" fill="#71675E" fill-opacity="0.05"/>
<path d="M284.875 192.56V274.969H254.218V234.234C253.749 234.036 253.28 233.838 252.835 233.616V230.825C254.218 231.343 255.626 231.862 257.01 232.406V271.93H282.083V195.055H199.896V271.93H223.587V245.399C228.922 242.682 234.283 239.965 239.619 237.247V278.155H242.386V225.81L247.252 228.033C247.252 229.046 247.252 230.059 247.252 231.072L245.152 230.133V280.972H236.803V241.966L226.353 247.203V274.697H196.932V192.51H284.875V192.56Z" fill="#71675E" fill-opacity="0.05"/>
<path d="M335.763 346.014V274.771H369.161V271.979H333.12C333.07 294.262 332.996 316.544 332.947 338.85C327.611 333.737 322.275 328.623 316.939 323.535V314.79C316 314.246 315.086 313.728 314.148 313.184V324.202C321.361 331.489 328.549 338.752 335.763 346.039V346.014Z" fill="#71675E" fill-opacity="0.05"/>
<path d="M314.148 305.205C315.086 305.724 316 306.267 316.939 306.786V271.979H281.219V274.87H314.148V305.205Z" fill="#71675E" fill-opacity="0.05"/>
<path d="M369.161 360.441V278.032H338.505V318.767C338.035 318.964 337.566 319.162 337.121 319.384V322.176C338.505 321.657 339.913 321.138 341.296 320.595V281.07H366.37V357.946H284.183V281.07H307.873V307.601C313.209 310.318 318.569 313.036 323.905 315.753V274.845H326.672V327.191L331.539 324.967C331.539 323.954 331.539 322.942 331.539 321.929L329.439 322.868V272.029H321.089V311.035L310.64 305.798V278.303H281.219V360.49H369.161V360.441Z" fill="#71675E" fill-opacity="0.05"/>
<path d="M448.408 206.986V278.229H481.807V281.021H445.765C445.716 258.739 445.642 236.457 445.592 214.15C440.256 219.264 434.92 224.377 429.585 229.466V238.211C428.646 238.754 427.732 239.273 426.793 239.816V228.799C434.006 221.511 441.195 214.249 448.408 206.961V206.986Z" fill="#71675E" fill-opacity="0.05"/>
<path d="M426.793 247.795C427.732 247.277 428.646 246.733 429.585 246.214V281.021H393.864V278.131H426.793V247.795Z" fill="#71675E" fill-opacity="0.05"/>
<path d="M481.807 192.56V274.969H451.15V234.234C450.681 234.036 450.212 233.838 449.767 233.616V230.825C451.15 231.343 452.558 231.862 453.942 232.406V271.93H479.015V195.055H396.828V271.93H420.519V245.399C425.854 242.682 431.215 239.965 436.551 237.247V278.155H439.318V225.81L444.184 228.033C444.184 229.046 444.184 230.059 444.184 231.072L442.084 230.133V280.972H433.735V241.966L423.285 247.203V274.697H393.864V192.51H481.807V192.56Z" fill="#71675E" fill-opacity="0.05"/>
<path d="M532.695 346.014V274.771H566.093V271.979H530.052C530.002 294.262 529.928 316.544 529.879 338.85C524.543 333.737 519.207 328.623 513.871 323.535V314.79C512.932 314.246 512.018 313.728 511.08 313.184V324.202C518.293 331.489 525.482 338.752 532.695 346.039V346.014Z" fill="#71675E" fill-opacity="0.05"/>
<path d="M511.08 305.205C512.018 305.724 512.932 306.267 513.871 306.786V271.979H478.151V274.87H511.08V305.205Z" fill="#71675E" fill-opacity="0.05"/>
<path d="M566.093 360.441V278.032H535.437V318.767C534.967 318.964 534.498 319.162 534.053 319.384V322.176C535.437 321.657 536.845 321.138 538.228 320.595V281.07H563.302V357.946H481.115V281.07H504.805V307.601C510.141 310.318 515.502 313.036 520.837 315.753V274.845H523.604V327.191L528.471 324.967C528.471 323.954 528.471 322.942 528.471 321.929L526.371 322.868V272.029H518.021V311.035L507.572 305.798V278.303H478.151V360.49H566.093V360.441Z" fill="#71675E" fill-opacity="0.05"/>
<path d="M645.34 206.986V278.229H678.739V281.021H642.697C642.648 258.739 642.574 236.457 642.524 214.15C637.188 219.264 631.853 224.377 626.517 229.466V238.211C625.578 238.754 624.664 239.273 623.725 239.816V228.799C630.939 221.511 638.127 214.249 645.34 206.961V206.986Z" fill="#71675E" fill-opacity="0.05"/>
<path d="M623.725 247.795C624.664 247.277 625.578 246.733 626.517 246.214V281.021H590.796V278.131H623.725V247.795Z" fill="#71675E" fill-opacity="0.05"/>
<path d="M678.739 192.56V274.969H648.082V234.234C647.613 234.036 647.144 233.838 646.699 233.616V230.825C648.082 231.343 649.49 231.862 650.874 232.406V271.93H675.947V195.055H593.761V271.93H617.451V245.399C622.787 242.682 628.147 239.965 633.483 237.247V278.155H636.25V225.81L641.116 228.033C641.116 229.046 641.116 230.059 641.116 231.072L639.016 230.133V280.972H630.667V241.966L620.217 247.203V274.697H590.796V192.51H678.739V192.56Z" fill="#71675E" fill-opacity="0.05"/>
<path d="M729.627 346.014V274.771H763.025V271.979H726.984C726.934 294.262 726.86 316.544 726.811 338.85C721.475 333.737 716.139 328.623 710.803 323.535V314.79C709.864 314.246 708.95 313.728 708.012 313.184V324.202C715.225 331.489 722.414 338.752 729.627 346.039V346.014Z" fill="#71675E" fill-opacity="0.05"/>
<path d="M707.987 305.205C708.926 305.724 709.84 306.267 710.779 306.786V271.979H675.058V274.87H707.987V305.205Z" fill="#71675E" fill-opacity="0.05"/>
<path d="M763.025 360.441V278.032H732.369V318.767C731.9 318.964 731.43 319.162 730.986 319.384V322.176C732.369 321.657 733.777 321.138 735.16 320.595V281.07H760.234V357.946H678.047V281.07H701.737V307.601C707.073 310.318 712.434 313.036 717.769 315.753V274.845H720.536V327.191L725.403 324.967C725.403 323.954 725.403 322.942 725.403 321.929L723.303 322.868V272.029H714.953V311.035L704.504 305.798V278.303H675.083V360.49H763.025V360.441Z" fill="#71675E" fill-opacity="0.05"/>
<path d="M842.272 206.986V278.229H875.671V281.021H839.629C839.58 258.739 839.506 236.457 839.456 214.15C834.121 219.264 828.785 224.377 823.449 229.466V238.211C822.51 238.754 821.596 239.273 820.657 239.816V228.799C827.871 221.511 835.059 214.249 842.272 206.961V206.986Z" fill="#71675E" fill-opacity="0.05"/>
<path d="M820.657 247.795C821.596 247.277 822.51 246.733 823.449 246.214V281.021H787.728V278.131H820.657V247.795Z" fill="#71675E" fill-opacity="0.05"/>
<path d="M875.671 192.56V274.969H845.014V234.234C844.545 234.036 844.076 233.838 843.631 233.616V230.825C845.014 231.343 846.423 231.862 847.806 232.406V271.93H872.879V195.055H790.693V271.93H814.383V245.399C819.719 242.682 825.079 239.965 830.415 237.247V278.155H833.182V225.81L838.048 228.033C838.048 229.046 838.048 230.059 838.048 231.072L835.948 230.133V280.972H827.599V241.966L817.15 247.203V274.697H787.728V192.51H875.671V192.56Z" fill="#71675E" fill-opacity="0.05"/>
<path d="M926.559 346.014V274.771H959.957V271.979H923.916C923.866 294.262 923.792 316.544 923.743 338.85C918.407 333.737 913.071 328.623 907.735 323.535V314.79C906.797 314.246 905.883 313.728 904.944 313.184V324.202C912.157 331.489 919.346 338.752 926.559 346.039V346.014Z" fill="#71675E" fill-opacity="0.05"/>
<path d="M904.919 305.205C905.858 305.724 906.772 306.267 907.711 306.786V271.979H871.99V274.87H904.919V305.205Z" fill="#71675E" fill-opacity="0.05"/>
<path d="M959.957 360.441V278.032H929.301V318.767C928.832 318.964 928.362 319.162 927.918 319.384V322.176C929.301 321.657 930.709 321.138 932.093 320.595V281.07H957.166V357.946H874.979V281.07H898.669V307.601C904.005 310.318 909.366 313.036 914.702 315.753V274.845H917.468V327.191L922.335 324.967C922.335 323.954 922.335 322.942 922.335 321.929L920.235 322.868V272.029H911.886V311.035L901.436 305.798V278.303H872.015V360.49H959.957V360.441Z" fill="#71675E" fill-opacity="0.05"/>
<path d="M1039.2 206.986V278.229H1072.6V281.021H1036.56C1036.51 258.739 1036.44 236.457 1036.39 214.15C1031.05 219.264 1025.72 224.377 1020.38 229.466V238.211C1019.44 238.754 1018.53 239.273 1017.59 239.816V228.799C1024.8 221.511 1031.99 214.249 1039.2 206.961V206.986Z" fill="#71675E" fill-opacity="0.05"/>
<path d="M1017.59 247.795C1018.53 247.277 1019.44 246.733 1020.38 246.214V281.021H984.66V278.131H1017.59V247.795Z" fill="#71675E" fill-opacity="0.05"/>
<path d="M1072.6 192.56V274.969H1041.95V234.234C1041.48 234.036 1041.01 233.838 1040.56 233.616V230.825C1041.95 231.343 1043.35 231.862 1044.74 232.406V271.93H1069.81V195.055H987.625V271.93H1011.31V245.399C1016.65 242.682 1022.01 239.965 1027.35 237.247V278.155H1030.11V225.81L1034.98 228.033C1034.98 229.046 1034.98 230.059 1034.98 231.072L1032.88 230.133V280.972H1024.53V241.966L1014.08 247.203V274.697H984.66V192.51H1072.6V192.56Z" fill="#71675E" fill-opacity="0.05"/>
<path d="M1123.47 346.014V274.771H1156.86V271.979H1120.82C1120.77 294.262 1120.7 316.544 1120.65 338.85C1115.31 333.737 1109.98 328.623 1104.64 323.535V314.79C1103.7 314.246 1102.79 313.728 1101.85 313.184V324.202C1109.06 331.489 1116.25 338.752 1123.47 346.039V346.014Z" fill="#71675E" fill-opacity="0.05"/>
<path d="M1101.85 305.205C1102.79 305.724 1103.7 306.267 1104.64 306.786V271.979H1068.92V274.87H1101.85V305.205Z" fill="#71675E" fill-opacity="0.05"/>
<path d="M1156.89 360.441V278.032H1126.23V318.767C1125.76 318.964 1125.29 319.162 1124.85 319.384V322.176C1126.23 321.657 1127.64 321.138 1129.02 320.595V281.07H1154.1V357.946H1071.91V281.07H1095.6V307.601C1100.94 310.318 1106.3 313.036 1111.63 315.753V274.845H1114.4V327.191L1119.27 324.967C1119.27 323.954 1119.27 322.942 1119.27 321.929L1117.17 322.868V272.029H1108.82V311.035L1098.37 305.798V278.303H1068.95V360.49H1156.89V360.441Z" fill="#71675E" fill-opacity="0.05"/>
<path d="M1236.14 206.986V278.229H1269.53V281.021H1233.49C1233.44 258.739 1233.37 236.457 1233.32 214.15C1227.98 219.264 1222.65 224.377 1217.31 229.466V238.211C1216.37 238.754 1215.46 239.273 1214.52 239.816V228.799C1221.73 221.511 1228.92 214.249 1236.14 206.961V206.986Z" fill="#71675E" fill-opacity="0.05"/>
<path d="M1214.52 247.795C1215.46 247.277 1216.37 246.733 1217.31 246.214V281.021H1181.59V278.131H1214.52V247.795Z" fill="#71675E" fill-opacity="0.05"/>
<path d="M1269.53 192.56V274.969H1238.88V234.234C1238.41 234.036 1237.94 233.838 1237.5 233.616V230.825C1238.88 231.343 1240.29 231.862 1241.67 232.406V271.93H1266.74V195.055H1184.56V271.93H1208.25V245.399C1213.58 242.682 1218.94 239.965 1224.28 237.247V278.155H1227.05V225.81L1231.91 228.033C1231.91 229.046 1231.91 230.059 1231.91 231.072L1229.81 230.133V280.972H1221.46V241.966L1211.01 247.203V274.697H1181.59V192.51H1269.53V192.56Z" fill="#71675E" fill-opacity="0.05"/>
<path d="M1320.4 346.014V274.771H1353.8V271.979H1317.76C1317.71 294.262 1317.63 316.544 1317.58 338.85C1312.25 333.737 1306.91 328.623 1301.57 323.535V314.79C1300.64 314.246 1299.72 313.728 1298.78 313.184V324.202C1306 331.489 1313.19 338.752 1320.4 346.039V346.014Z" fill="#71675E" fill-opacity="0.05"/>
<path d="M1298.78 305.205C1299.72 305.724 1300.64 306.267 1301.57 306.786V271.979H1265.85V274.87H1298.78V305.205Z" fill="#71675E" fill-opacity="0.05"/>
<path d="M1353.82 360.441V278.032H1323.17V318.767C1322.7 318.964 1322.23 319.162 1321.78 319.384V322.176C1323.17 321.657 1324.57 321.138 1325.96 320.595V281.07H1351.03V357.946H1268.84V281.07H1292.53V307.601C1297.87 310.318 1303.23 313.036 1308.57 315.753V274.845H1311.33V327.191L1316.2 324.967C1316.2 323.954 1316.2 322.942 1316.2 321.929L1314.1 322.868V272.029H1305.75V311.035L1295.3 305.798V278.303H1265.88V360.49H1353.82V360.441Z" fill="#71675E" fill-opacity="0.05"/>
</g>
</svg>
