<svg width="20" height="20" viewBox="0 0 20 20" fill="none" xmlns="http://www.w3.org/2000/svg">
<g clip-path="url(#clip0_704_42)">
<mask id="mask0_704_42" style="mask-type:luminance" maskUnits="userSpaceOnUse" x="0" y="0" width="20" height="20">
<path d="M20 0H0V20H20V0Z" fill="white"/>
</mask>
<g mask="url(#mask0_704_42)">
<path d="M15.824 3.707C15.731 3.707 15.6402 3.73456 15.5629 3.78621C15.4856 3.83785 15.4253 3.91126 15.3898 3.99714C15.3542 4.08302 15.3449 4.17752 15.363 4.26869C15.3812 4.35986 15.4259 4.44362 15.4917 4.50935C15.5574 4.57508 15.6411 4.61983 15.7323 4.63797C15.8235 4.65611 15.918 4.6468 16.0039 4.61123C16.0898 4.57566 16.1631 4.51541 16.2148 4.43812C16.2664 4.36083 16.294 4.26996 16.294 4.177C16.294 4.11528 16.2819 4.05416 16.2582 3.99714C16.2346 3.94012 16.2 3.88831 16.1563 3.84467C16.1127 3.80102 16.0609 3.7664 16.0039 3.74278C15.9469 3.71916 15.8857 3.707 15.824 3.707Z" fill="black"/>
<path d="M10 5.833C9.17664 5.833 8.37177 6.07715 7.68717 6.53459C7.00257 6.99202 6.46899 7.6422 6.1539 8.40289C5.83882 9.16358 5.75637 10.0006 5.917 10.8082C6.07763 11.6157 6.47412 12.3575 7.05632 12.9397C7.63853 13.5219 8.38031 13.9184 9.18785 14.079C9.9954 14.2396 10.8324 14.1572 11.5931 13.8421C12.3538 13.527 13.004 12.9934 13.4614 12.3088C13.9189 11.6242 14.163 10.8194 14.163 9.996C14.1617 8.89231 13.7227 7.83421 12.9422 7.05378C12.1618 6.27336 11.1037 5.83433 10 5.833Z" fill="black"/>
<path d="M14.517 0H5.483C4.02931 0.00158816 2.63561 0.57977 1.60769 1.60769C0.57977 2.63561 0.00158816 4.02931 0 5.483V14.518C0.00185278 15.9715 0.580151 17.365 1.60804 18.3927C2.63593 19.4204 4.02948 19.9984 5.483 20H14.518C15.9715 19.9981 17.365 19.4198 18.3927 18.392C19.4204 17.3641 19.9984 15.9705 20 14.517V5.483C19.9984 4.02931 19.4202 2.63561 18.3923 1.60769C17.3644 0.57977 15.9707 0.00158816 14.517 0ZM10 15.486C8.91497 15.486 7.85431 15.1643 6.95214 14.5614C6.04997 13.9586 5.34682 13.1018 4.9316 12.0994C4.51637 11.097 4.40773 9.99391 4.61941 8.92973C4.83109 7.86555 5.35358 6.88804 6.12081 6.12081C6.88804 5.35358 7.86555 4.83109 8.92973 4.61941C9.99391 4.40773 11.097 4.51637 12.0994 4.9316C13.1018 5.34682 13.9586 6.04997 14.5614 6.95214C15.1643 7.85431 15.486 8.91497 15.486 10C15.4844 11.4545 14.9059 12.849 13.8774 13.8774C12.849 14.9059 11.4545 15.4844 10 15.486ZM15.814 5.853C15.4843 5.8532 15.1619 5.7556 14.8876 5.57255C14.6133 5.38949 14.3995 5.12921 14.2732 4.82463C14.1469 4.52004 14.1137 4.18483 14.1779 3.8614C14.2421 3.53797 14.4008 3.24084 14.6339 3.00761C14.867 2.77437 15.164 2.61551 15.4874 2.5511C15.8108 2.4867 16.146 2.51966 16.4507 2.6458C16.7554 2.77194 17.0158 2.9856 17.199 3.25976C17.3822 3.53392 17.48 3.85626 17.48 4.186C17.4795 4.62778 17.3038 5.05133 16.9915 5.36381C16.6792 5.67629 16.2558 5.85221 15.814 5.853Z" fill="black"/>
</g>
</g>
<defs>
<clipPath id="clip0_704_42">
<rect width="20" height="20" fill="white"/>
</clipPath>
</defs>
</svg>
