<svg width="171" height="78" viewBox="0 0 171 78" fill="none" xmlns="http://www.w3.org/2000/svg">
<path fill-rule="evenodd" clip-rule="evenodd" d="M38.5 52.9818V25.914H55.0822V31.8575H45.6933V36.5514H54.545V42.3444H45.6933V52.9818H38.5ZM57.5411 52.9835V34.3197H63.7571V38.7177C64.4008 37.1085 65.2716 35.9094 66.3811 35.1087C67.492 34.3068 68.8364 33.9032 70.4131 33.9032C70.6727 33.9032 70.9374 33.9097 71.2021 33.9278C71.4669 33.9473 71.7316 33.9797 72.0041 34.0174L71.3605 39.9985C70.9698 39.8662 70.5779 39.7714 70.199 39.7092C69.8149 39.6508 69.4489 39.6196 69.0895 39.6196C67.492 39.6196 66.263 40.1115 65.391 41.0899C64.5267 42.0684 64.0919 43.4557 64.0919 45.2543V52.9835H57.5411ZM86.1572 41.2487C86.03 40.1884 85.6264 39.3358 84.9451 38.6922C84.2573 38.0498 83.4177 37.7267 82.4146 37.7267C81.3426 37.7267 80.4848 38.0173 79.8464 38.6052C79.2157 39.1918 78.7926 40.0755 78.5785 41.2487H86.1572ZM92.6304 44.9552H78.4333C78.4463 46.3957 78.8174 47.5053 79.5442 48.2878C80.2761 49.069 81.3039 49.4609 82.6353 49.4609C83.6385 49.4609 84.4781 49.2727 85.1659 48.9003C85.8472 48.5214 86.3715 47.9659 86.7309 47.2275L91.683 49.2221C91.09 50.6535 90.044 51.7579 88.5425 52.5339C87.0333 53.3099 85.1905 53.7019 83.0078 53.7019C79.7531 53.7019 77.1395 52.7986 75.1773 50.9948C73.2087 49.1832 72.225 46.8045 72.225 43.8457C72.225 40.9375 73.2087 38.5199 75.1709 36.5953C77.1395 34.6708 79.6259 33.7118 82.6288 33.7118C85.7213 33.7118 88.1636 34.6838 89.9493 36.633C91.7349 38.5834 92.6304 41.2528 92.6304 44.6399V44.9552ZM93.532 51.4308L94.9011 46.3957C95.8666 47.234 96.9217 47.8764 98.0741 48.3319C99.2303 48.7796 100.39 49.008 101.558 49.008C102.385 49.008 103.016 48.8743 103.445 48.6096C103.88 48.3449 104.094 47.9595 104.094 47.4546C104.094 46.6293 103.223 46.0103 101.482 45.6002C100.915 45.4678 100.454 45.3471 100.113 45.2524C98.1376 44.71 96.7114 43.9975 95.816 43.1138C94.9258 42.2365 94.4781 41.088 94.4781 39.6878C94.4781 37.871 95.1594 36.4253 96.5233 35.3404C97.8859 34.2543 99.7286 33.7118 102.057 33.7118C103.255 33.7118 104.473 33.8507 105.71 34.1284C106.945 34.4074 108.216 34.8356 109.508 35.4157L108.139 39.959C107.268 39.366 106.379 38.9105 105.475 38.6029C104.574 38.2928 103.679 38.1409 102.776 38.1409C102.024 38.1409 101.457 38.2616 101.073 38.4952C100.688 38.7288 100.497 39.0688 100.497 39.51C100.497 40.1731 101.361 40.7351 103.09 41.1957C103.488 41.3022 103.785 41.3852 103.981 41.4358C106.259 42.086 107.843 42.8542 108.737 43.7315C109.629 44.6165 110.075 45.8091 110.075 47.3093C110.075 49.2156 109.345 50.7612 107.874 51.9344C106.411 53.1153 104.467 53.7019 102.057 53.7019C100.415 53.7019 98.8942 53.5124 97.4875 53.1399C96.0808 52.761 94.7623 52.1939 93.532 51.4308ZM112.454 52.983V24.3242H118.929V34.3828C118.929 35.0447 118.909 35.6637 118.873 36.2308C118.834 36.7992 118.783 37.3105 118.708 37.7647C119.533 36.3696 120.505 35.3483 121.623 34.6917C122.747 34.0415 124.085 33.7132 125.63 33.7132C126.841 33.7132 127.913 33.9092 128.854 34.2946C129.795 34.6852 130.563 35.2406 131.152 35.9725C131.649 36.5967 131.997 37.3663 132.204 38.263C132.412 39.1649 132.52 40.5094 132.52 42.295V52.983H125.933V42.9828C125.933 41.4878 125.687 40.4081 125.201 39.7268C124.715 39.052 123.938 38.7107 122.866 38.7107C121.497 38.7107 120.5 39.2155 119.868 40.2252C119.244 41.2348 118.929 42.8751 118.929 45.1474V52.983H112.454Z" fill="black"/>
<path fill-rule="evenodd" clip-rule="evenodd" d="M83.0987 31.0992C84.9907 27.5305 87.651 26.1666 92.2761 26.2497C90.3308 31.2718 87.6095 33.1405 82.2227 33.0432C81.618 31.1784 80.5434 29.564 78.75 28.3325C79.1951 27.6577 79.6402 26.9829 80.0866 26.3068C81.6932 27.8147 82.5912 29.4278 83.0987 31.0992" fill="black"/>
</svg>
