<svg width="170" height="78" viewBox="0 0 170 78" fill="none" xmlns="http://www.w3.org/2000/svg">
<path fill-rule="evenodd" clip-rule="evenodd" d="M25.5128 52.3197L41.6691 61.6476C43.2301 62.5488 45.1532 62.5488 46.7142 61.6476L62.8705 52.3197C64.4315 51.4185 65.3931 49.753 65.3931 47.9505V29.2948C65.3931 27.4924 64.4315 25.8269 62.8705 24.9256L46.7142 15.5978C45.1532 14.6966 43.2301 14.6966 41.6691 15.5978L25.5128 24.9256C23.9518 25.8269 22.9902 27.4924 22.9902 29.2948V47.9505C22.9902 49.753 23.9518 51.4185 25.5128 52.3197ZM47.9176 42.7442C44.434 45.8924 44.9022 48.291 47.1973 50.8306H47.191C47.8425 51.5496 48.2428 52.5003 48.2428 53.547C48.2428 55.7846 46.4289 57.5985 44.1913 57.5985C41.9538 57.5985 40.1398 55.7846 40.1398 53.547C40.1398 52.5003 40.5401 51.5496 41.1916 50.8306H41.1854C43.4805 48.291 43.9487 45.8924 40.465 42.7442H40.4745C39.3468 41.7271 38.6338 40.2591 38.6338 38.6209C38.6338 36.9827 39.3468 35.5147 40.4745 34.4976H40.465C43.9487 31.3493 43.4805 28.9508 41.1854 26.4112H41.1916C40.5401 25.6922 40.1398 24.7414 40.1398 23.6947C40.1398 21.4572 41.9538 19.6433 44.1913 19.6433C46.4289 19.6433 48.2428 21.4572 48.2428 23.6947C48.2428 24.7414 47.8425 25.6922 47.191 26.4112H47.1973C44.9022 28.9508 44.4339 31.3493 47.9176 34.4976H47.9082C49.0358 35.5147 49.7489 36.9827 49.7489 38.6209C49.7489 40.2591 49.0358 41.7271 47.9082 42.7442H47.9176ZM36.0827 42.6671C34.8691 41.3242 34.1749 40.0197 34.2972 38.6239C34.1749 37.2281 34.8691 35.9237 36.0827 34.5807H36.0765C36.728 33.8617 37.1283 32.911 37.1283 31.8643C37.1283 29.6267 35.3144 27.8128 33.0768 27.8128C30.8393 27.8128 29.0254 29.6267 29.0254 31.8643C29.0254 32.911 29.4257 33.8617 30.0772 34.5807H30.0709C31.2846 35.9237 31.9788 37.2281 31.8565 38.6239C31.9788 40.0197 31.2846 41.3242 30.0709 42.6671H30.0772C29.4257 43.3861 29.0254 44.3368 29.0254 45.3835C29.0254 47.6211 30.8393 49.435 33.0768 49.435C35.3144 49.435 37.1283 47.6211 37.1283 45.3835C37.1283 44.3368 36.728 43.3861 36.0765 42.6671H36.0827ZM56.5269 38.6239C56.4047 40.0197 57.0989 41.3242 58.3125 42.6671H58.3063C58.9578 43.3861 59.3581 44.3368 59.3581 45.3835C59.3581 47.6211 57.5442 49.435 55.3066 49.435C53.069 49.435 51.2551 47.6211 51.2551 45.3835C51.2551 44.3368 51.6555 43.3861 52.3069 42.6671H52.3007C53.5143 41.3242 54.2085 40.0197 54.0862 38.6239C54.2085 37.2281 53.5143 35.9237 52.3007 34.5807H52.3069C51.6555 33.8617 51.2551 32.911 51.2551 31.8643C51.2551 29.6267 53.069 27.8128 55.3066 27.8128C57.5442 27.8128 59.3581 29.6267 59.3581 31.8643C59.3581 32.911 58.9578 33.8617 58.3063 34.5807H58.3125C57.0989 35.9237 56.4047 37.2281 56.5269 38.6239Z" fill="black"/>
<path fill-rule="evenodd" clip-rule="evenodd" d="M78.965 29.8281V41.876C78.965 42.6718 79.2745 43.136 79.9155 43.136C80.3576 43.136 80.7556 42.9813 81.1535 42.7823L81.3082 45.2361C80.7776 45.4571 79.7829 45.7445 78.6997 45.7445C76.9755 45.7445 75.8701 44.9045 75.8701 42.6276V29.8281H78.965" fill="black"/>
<path fill-rule="evenodd" clip-rule="evenodd" d="M94.2846 41.967C94.2846 42.6302 94.4615 43.1386 95.0804 43.1386C95.5226 43.1386 95.8763 42.9839 96.252 42.7849L96.3847 45.2387C95.8099 45.504 94.8594 45.7471 93.8646 45.7471C92.5603 45.7471 91.7424 45.2166 91.4108 44.0671C90.615 44.9955 89.3329 45.725 87.7412 45.725C84.5137 45.725 82.3252 43.2492 82.3252 39.7785C82.3252 36.2636 84.5137 33.7656 87.7412 33.7656C89.2444 33.7656 90.4161 34.1856 91.1898 34.9593V33.9646H94.2846V41.967ZM91.1897 37.5021C90.6592 36.9494 89.6423 36.463 88.6033 36.463C86.6801 36.463 85.4642 37.7894 85.4642 39.779C85.4642 41.7243 86.7021 43.0507 88.6033 43.0507C89.6202 43.0507 90.5707 42.5864 91.1897 42.0117V37.5021Z" fill="black"/>
<path fill-rule="evenodd" clip-rule="evenodd" d="M104.829 45.7484C103.26 45.7484 102.132 45.2621 101.359 44.4884V45.5274H98.2637V29.832H101.359V34.9385C102.154 34.2312 103.348 33.7669 104.829 33.7669C108.079 33.7669 110.267 36.2428 110.267 39.7356C110.267 43.2284 108.079 45.7484 104.829 45.7484ZM103.967 36.4633C102.928 36.4633 101.955 36.9497 101.359 37.5465V41.9899C101.889 42.5204 102.884 43.051 103.967 43.051C105.868 43.051 107.106 41.7246 107.106 39.7351C107.106 37.7676 105.868 36.4633 103.967 36.4633Z" fill="black"/>
<path fill-rule="evenodd" clip-rule="evenodd" d="M117.982 33.6523C121.607 33.6523 124.216 36.2609 124.216 39.7757C124.216 43.2464 121.607 45.8328 117.982 45.8328C114.401 45.8328 111.792 43.2464 111.792 39.7757C111.792 36.2609 114.401 33.6523 117.982 33.6523ZM117.982 43.0036C119.927 43.0036 121.231 41.5888 121.231 39.7761C121.231 37.9191 119.927 36.4822 117.982 36.4822C116.081 36.4822 114.776 37.9191 114.776 39.7761C114.776 41.5888 116.081 43.0036 117.982 43.0036Z" fill="black"/>
<path fill-rule="evenodd" clip-rule="evenodd" d="M127.377 37.5418C127.377 36.8566 127.223 36.3702 126.582 36.3702C126.117 36.3702 125.587 36.5913 125.41 36.7018L125.277 34.2701C125.432 34.1154 126.582 33.7617 127.797 33.7617C129.124 33.7617 129.986 34.2923 130.318 35.5081C130.87 34.4249 131.71 33.7617 133.213 33.7617C134.297 33.7617 135.137 34.1596 135.291 34.4249L134.849 37.2103C134.672 36.9671 133.788 36.6134 132.727 36.6134C131.246 36.6134 130.671 37.8955 130.472 39.244V45.5222H127.377V37.5418" fill="black"/>
<path fill-rule="evenodd" clip-rule="evenodd" d="M147.227 44.2633C146.033 45.2359 144.331 45.8328 142.364 45.8328C138.009 45.8328 136.063 43.1801 136.063 39.7757C136.063 36.3271 138.451 33.6523 142.165 33.6523C145.68 33.6523 147.338 35.7966 147.338 38.4714C147.338 39.1788 147.227 40.2842 147.094 40.7263H139.247C139.534 42.3401 140.573 43.2464 142.452 43.2464C143.911 43.2464 145.26 42.6496 146.055 42.0527L147.227 44.2633ZM144.375 37.9416C144.375 37.0131 143.668 36.2173 142.098 36.2173C140.44 36.2173 139.556 37.2121 139.335 38.3394H144.353C144.375 38.2289 144.375 38.0521 144.375 37.9416Z" fill="black"/>
</svg>
