<svg width="170" height="78" viewBox="0 0 170 78" fill="none" xmlns="http://www.w3.org/2000/svg">
<path fill-rule="evenodd" clip-rule="evenodd" d="M50.6878 24.5191L48.7296 31.2342H58.8015L33.9941 63.8758L40.5226 41.0266H34.367L40.3359 13.9805H71.8584L63.9313 24.5191H50.6878" fill="black"/>
<path fill-rule="evenodd" clip-rule="evenodd" d="M77.2386 29.2227C78.3858 29.2227 79.2119 29.4062 79.9003 29.7274L79.5102 32.2285C79.1201 32.045 78.5694 31.9073 77.8811 31.9073C76.7109 31.9073 75.7012 32.3203 75.4947 33.6512L75.3341 34.5919H78.6842L78.2711 37.2766H74.8981L73.5902 45.6058H70.4008L71.7317 37.2766H69.8271L70.2631 34.5919H72.1447L72.3512 33.3299C72.8559 30.0946 75.1735 29.2227 77.2386 29.2227" fill="black"/>
<path fill-rule="evenodd" clip-rule="evenodd" d="M91.1198 34.5938L89.376 45.6076H86.5766L86.806 44.185C85.8653 45.2634 84.5345 45.9289 82.9971 45.9289C80.1519 45.9289 78.7063 43.8638 79.1193 41.2939L80.1748 34.5938H83.3413L82.3317 41.0874C82.0793 42.5788 82.8135 43.1754 83.9608 43.1754C85.1999 43.1754 86.2324 42.4412 86.829 41.7069L87.9533 34.5938H91.1198" fill="black"/>
<path fill-rule="evenodd" clip-rule="evenodd" d="M96.719 50.97C94.7915 50.97 93.1624 50.5112 91.9922 49.8457L92.4282 47.1611C93.5296 47.9183 94.8834 48.2854 96.4208 48.2854C98.394 48.2854 100.138 47.4823 100.482 45.3484L100.643 44.3388C100.046 45.073 98.8529 45.922 96.9025 45.922C93.4148 45.922 91.8316 43.0079 92.3364 39.8873C92.7953 36.9962 95.0898 34.2656 98.4628 34.2656C100.321 34.2656 101.538 35.0688 102.226 36.3308L102.524 34.5869H105.369L103.672 45.3943C103.029 49.4327 99.9543 50.97 96.719 50.97ZM97.7978 43.2391C99.2893 43.2391 100.482 42.3442 101.102 41.3576L101.538 38.6729C101.263 37.7322 100.368 36.952 99.0828 36.952C97.1782 36.952 95.8016 38.3058 95.5033 40.1874C95.2508 41.7935 96.054 43.2391 97.7978 43.2391Z" fill="black"/>
<path fill-rule="evenodd" clip-rule="evenodd" d="M106.355 45.6078L108.099 34.5939H111.289L109.545 45.6078H106.355ZM110.119 32.7812C109.063 32.7812 108.214 32.1157 108.421 30.7619C108.604 29.6146 109.476 29.1328 110.417 29.1328C111.495 29.1328 112.322 29.8212 112.115 31.152C111.931 32.2993 111.059 32.7812 110.119 32.7812Z" fill="black"/>
<path fill-rule="evenodd" clip-rule="evenodd" d="M117.141 45.922C113.653 45.922 112.069 43.0079 112.574 39.8873C113.033 36.9962 115.282 34.2656 118.701 34.2656C120.72 34.2656 121.913 35.3441 122.487 36.4225L122.785 34.5869H125.584L123.841 45.6008H121.041L121.294 43.9717C120.445 45.0501 119.091 45.922 117.141 45.922ZM118.035 43.2391C119.527 43.2391 120.72 42.2983 121.339 41.3117L121.775 38.7418C121.523 37.7551 120.628 36.952 119.32 36.952C117.416 36.952 116.039 38.3517 115.74 40.1644C115.488 41.7935 116.291 43.2391 118.035 43.2391Z" fill="black"/>
<path fill-rule="evenodd" clip-rule="evenodd" d="M132.813 30.6211L132.193 34.5907H135.681L135.245 37.2753H131.757L131.046 41.6809C130.863 42.8511 131.321 43.2412 132.492 43.2412C133.272 43.2412 133.96 43.1035 134.626 42.8282L134.213 45.444C133.524 45.7423 132.446 45.9258 131.344 45.9258C129.256 45.9258 127.398 44.8474 127.834 42.1169L128.591 37.2753H126.732L127.168 34.5907H129.004L129.532 31.4013L132.813 30.6211" fill="black"/>
</svg>
