<svg width="171" height="78" viewBox="0 0 171 78" fill="none" xmlns="http://www.w3.org/2000/svg">
<path fill-rule="evenodd" clip-rule="evenodd" d="M77.843 46.9791L71.6219 37.6797H69.8906V53.1062H71.933V41.6016L77.2197 49.5213H78.4662L83.753 41.6016V53.1062H85.7953V37.6797H84.064L77.843 46.9791" fill="black"/>
<path fill-rule="evenodd" clip-rule="evenodd" d="M96.562 37.6797L89.8408 53.1062H92.0553L93.6198 49.4343H101.668L103.232 53.1062H105.425L98.7255 37.6797H96.562ZM97.6326 39.9502C97.6769 40.0617 97.7212 40.1706 97.7718 40.2843L100.857 47.5203H94.4288L97.493 40.2858C97.5442 40.1708 97.5884 40.0618 97.6326 39.9502Z" fill="black"/>
<path fill-rule="evenodd" clip-rule="evenodd" d="M119.097 50.8893C118.377 51.2234 117.4 51.4141 116.403 51.4141C114.894 51.4141 109.972 50.9801 109.972 45.3958C109.972 40.9535 113.413 39.3773 116.359 39.3773C117.979 39.3773 119.486 39.7649 120.603 40.4688L120.77 40.5738V38.4844L120.71 38.4544C119.379 37.7886 117.741 37.4219 116.098 37.4219C113.956 37.4219 111.957 38.1305 110.471 39.4173C108.794 40.8689 107.907 42.9362 107.907 45.3958C107.907 46.7842 108.147 48.0267 108.62 49.0889C109.056 50.068 109.692 50.9007 110.511 51.5639C112.354 53.0565 114.661 53.3698 116.272 53.3698C117.93 53.3698 119.636 53.0036 121.076 52.3387L121.139 52.3096V44.809H119.097V50.8893" fill="black"/>
<path fill-rule="evenodd" clip-rule="evenodd" d="M137.504 49.6088L128.52 37.6797H126.662V53.1062H128.705V41.1557L137.689 53.1062H139.547V37.6797H137.504V49.6088" fill="black"/>
<path fill-rule="evenodd" clip-rule="evenodd" d="M152.505 37.7451L152.477 37.6797H150.313L143.592 53.1062H145.806L147.371 49.4343H155.419L156.983 53.1062H159.176L152.505 37.7451ZM151.384 39.9502C151.428 40.0617 151.472 40.1706 151.523 40.2843L154.608 47.5203H148.18L151.244 40.2858C151.295 40.1708 151.339 40.0618 151.384 39.9502Z" fill="black"/>
<path fill-rule="evenodd" clip-rule="evenodd" d="M46.5162 31.1162C46.0186 31.1162 45.53 31.1454 45.0481 31.2059C44.75 30.8249 44.4228 30.455 44.0708 30.1031L35.4638 21.4961L26.8568 30.1031C26.5048 30.455 26.1776 30.8249 25.8796 31.2059C25.3977 31.1454 24.909 31.1162 24.4114 31.1162H12.2383V43.2893C12.2383 50.0001 17.6984 55.4624 24.4114 55.4624H46.5162C53.2293 55.4624 58.6893 50.0001 58.6893 43.2893V31.1162H46.5162ZM24.4111 35.3739H23.7611C22.5956 39.4824 23.6266 44.0885 26.8565 47.3161L30.7431 51.2027L32.3255 52.7874L32.7581 53.22H24.4111C18.9354 53.22 14.4794 48.7641 14.4794 43.2883V33.3566H24.5299C25.348 33.3678 26.1437 33.4754 26.9035 33.6749C29.5911 34.3697 31.8414 36.1674 33.1391 38.5522C33.9058 39.9598 34.3427 41.5736 34.3427 43.2883V51.6331L28.4411 45.7314C25.6909 42.9813 24.893 39.0072 26.0518 35.5465C25.5228 35.4322 24.9737 35.3739 24.4111 35.3739ZM35.4636 38.187C35.1297 37.4652 34.7261 36.7793 34.2599 36.1428C32.803 34.1368 30.7476 32.5924 28.3584 31.772C28.3852 31.7429 28.4121 31.716 28.4412 31.6869L35.4636 24.6645L42.4859 31.6869C42.515 31.716 42.5419 31.7429 42.5689 31.772C40.1795 32.5924 38.1241 34.1368 36.6672 36.1428C36.201 36.7793 35.7976 37.4652 35.4636 38.187ZM56.4483 43.2883C56.4483 48.7641 51.9925 53.22 46.5166 53.22H38.1696L38.6022 52.7874L40.1847 51.2027L44.0712 47.3161C47.3011 44.0885 48.3322 39.4824 47.1666 35.3739H46.5166C45.9541 35.3739 45.4049 35.4322 44.8759 35.5465C46.0348 39.0072 45.2368 42.9813 42.4866 45.7314L36.5849 51.6331V43.2883C36.5849 41.5736 37.0221 39.9598 37.7886 38.5522C39.0864 36.1674 41.3368 34.3697 44.0242 33.6749C44.784 33.4754 45.5797 33.3678 46.3978 33.3566H56.4483V43.2883Z" fill="black"/>
</svg>
