<svg width="171" height="78" viewBox="0 0 171 78" fill="none" xmlns="http://www.w3.org/2000/svg">
<path fill-rule="evenodd" clip-rule="evenodd" d="M56.6869 45.8672C54.1154 50.731 49.0027 54.0528 43.129 54.0528H28.1992V45.8672H56.6869Z" fill="#12161C"/>
<path fill-rule="evenodd" clip-rule="evenodd" d="M56.6869 31.5879H26.8809V23.4023H43.1293C49.0031 23.4023 54.1153 26.7241 56.6869 31.5879Z" fill="#12161C"/>
<path fill-rule="evenodd" clip-rule="evenodd" d="M58.2675 38.7274C58.2675 40.0016 58.1006 41.2771 57.7702 42.533H30.3643V34.9219H57.7702C58.1006 36.1774 58.2675 37.4528 58.2675 38.7274Z" fill="#12161C"/>
<path fill-rule="evenodd" clip-rule="evenodd" d="M78.1703 30.6445V44.0371H75.9861L75.8328 42.7342C75.1048 43.8646 73.936 44.2478 72.7864 44.2478C70.0083 44.2478 67.9199 42.4085 67.9199 39.3047C67.9199 36.0476 69.97 34.3615 72.729 34.3615C73.7253 34.3615 75.2772 34.898 75.8328 35.8751V30.6445H78.1703ZM70.2576 39.3062C70.2576 40.9539 71.4455 42.0843 72.94 42.0843C74.4153 42.0843 75.6798 41.0114 75.6798 39.3062C75.6798 37.6584 74.4153 36.5472 72.94 36.5472C71.4455 36.5472 70.2576 37.601 70.2576 39.3062Z" fill="#12161C"/>
<path fill-rule="evenodd" clip-rule="evenodd" d="M89.7241 34.5898L83.9571 47.9824H81.3897L83.1524 43.8823L79.3779 34.5898H82.0986L83.5356 38.6708L84.4361 41.334L85.4132 38.7283L87.1375 34.5898H89.7241Z" fill="#12161C"/>
<path fill-rule="evenodd" clip-rule="evenodd" d="M97.905 44.0326V39.0894C97.905 37.6524 97.1194 36.5603 95.625 36.5603C94.188 36.5603 93.2109 37.7674 93.2109 39.2044V44.0326H90.8926V34.5677H92.981L93.1342 35.8514C94.0922 34.9126 95.0502 34.4336 96.2381 34.4336C98.4607 34.4336 100.242 36.1005 100.242 39.0702V44.0326H97.905Z" fill="#12161C"/>
<path fill-rule="evenodd" clip-rule="evenodd" d="M109.746 34.5895H111.988V44.0351H109.784L109.669 42.6557C109.133 43.7669 107.658 44.3034 106.604 44.3226C103.807 44.3417 101.737 42.6173 101.737 39.3027C101.737 36.0456 103.902 34.3404 106.661 34.3595C107.926 34.3595 109.133 34.9535 109.669 35.8923L109.746 34.5895ZM104.075 39.3044C104.075 41.1054 105.321 42.1783 106.873 42.1783C110.551 42.1783 110.551 36.4496 106.873 36.4496C105.321 36.4496 104.075 37.5034 104.075 39.3044Z" fill="#12161C"/>
<path fill-rule="evenodd" clip-rule="evenodd" d="M120.428 44.0361V38.978C120.428 37.7326 119.776 36.6022 118.493 36.6022C117.228 36.6022 116.481 37.7326 116.481 38.978V44.0361H114.144V34.5712H116.309L116.481 35.7208C116.979 34.7629 118.071 34.418 118.972 34.418C120.102 34.418 121.233 34.8778 121.769 36.1807C122.612 34.8395 123.704 34.4563 124.93 34.4563C127.613 34.4563 128.935 36.104 128.935 38.9396V44.0361H126.597V38.9396C126.597 37.6943 126.08 36.6405 124.815 36.6405C123.551 36.6405 122.765 37.7326 122.765 38.978V44.0361H120.428Z" fill="#12161C"/>
<path fill-rule="evenodd" clip-rule="evenodd" d="M133.676 31.9237C133.676 33.7439 130.917 33.7439 130.917 31.9237C130.917 30.1036 133.676 30.1036 133.676 31.9237ZM131.128 44.0317H133.465V34.5477H131.128V44.0317Z" fill="#12161C"/>
<path fill-rule="evenodd" clip-rule="evenodd" d="M143.678 42.8272C142.586 43.9001 141.436 44.3216 140.037 44.3216C137.298 44.3216 135.018 42.6739 135.018 39.321C135.018 35.9681 137.298 34.3203 140.037 34.3203C141.379 34.3203 142.413 34.7035 143.448 35.719L141.972 37.2709C141.417 36.7727 140.727 36.5237 140.076 36.5237C138.505 36.5237 137.355 37.6732 137.355 39.321C137.355 41.122 138.581 42.08 140.037 42.08C140.785 42.08 141.532 41.8692 142.107 41.2944L143.678 42.8272Z" fill="#12161C"/>
</svg>
