<svg width="171" height="78" viewBox="0 0 171 78" fill="none" xmlns="http://www.w3.org/2000/svg">
<path fill-rule="evenodd" clip-rule="evenodd" d="M27.843 51.9495C28.9605 53.8867 30.9627 55.0432 33.1991 55.0432H33.1991C35.7353 55.0432 38.0996 53.6794 39.3694 51.484L42.3402 46.3477H27.5477C26.7375 48.1529 26.8359 50.2034 27.843 51.9495" fill="black"/>
<path fill-rule="evenodd" clip-rule="evenodd" d="M52.661 51.4792C53.9302 53.6775 56.2955 55.0432 58.834 55.0432H58.8354C61.072 55.0432 63.0749 53.8868 64.1932 51.9499C65.2009 50.2044 65.3005 48.1535 64.4918 46.3477H49.6982L52.661 51.4792" fill="black"/>
<path fill-rule="evenodd" clip-rule="evenodd" d="M63.1807 44.0069L57.8685 34.8086H34.1716L28.8594 44.0069H63.1807" fill="black"/>
<path fill-rule="evenodd" clip-rule="evenodd" d="M46.308 23.4023H45.7434C42.6714 23.4023 39.8085 25.0549 38.2721 27.7151L35.5225 32.472H56.5206L53.7788 27.7142C52.2429 25.0549 49.3801 23.4023 46.308 23.4023" fill="black"/>
<path fill-rule="evenodd" clip-rule="evenodd" d="M74.6885 42.7647C74.6885 40.9264 75.5021 39.5703 77.0391 38.9675C77.7322 38.6963 78.9377 38.5456 80.6554 38.5456H81.5595C82.3129 38.5456 82.9759 38.5758 83.5786 38.636V36.9183C83.5786 34.7184 82.4636 33.965 79.9321 33.965C78.8774 33.965 77.8528 34.1156 76.8281 34.417C76.3761 34.5375 76.135 34.5375 76.0446 34.1759L75.8939 33.543C75.7734 33.1814 75.8638 32.9705 76.2254 32.8801C77.5213 32.4883 78.8171 32.2773 80.0828 32.2773C83.9402 32.2773 85.5374 33.5732 85.5374 36.7073V47.0139C85.5374 47.255 85.4772 47.3152 85.2059 47.3152H84.2115C83.9402 47.3152 83.8197 47.2248 83.8197 47.0139L83.7594 45.9893H83.6991C83.0362 47.044 81.9814 47.5865 80.5047 47.5865H78.9979C77.6719 47.5865 76.4665 47.1947 75.7734 46.5015C75.0501 45.7783 74.6885 44.8441 74.6885 43.6688V42.7647ZM76.6775 43.4285C76.6775 44.3628 76.8885 44.9956 77.3104 45.3874C77.7021 45.749 78.3049 45.9298 79.1487 45.9298H80.3843C82.4034 45.9298 83.5786 44.845 83.5786 42.7957V40.2944C83.0965 40.2341 82.4938 40.204 81.7705 40.204H80.0829C78.8172 40.204 77.9432 40.4149 77.4309 40.8067C76.9186 41.1985 76.6775 41.8615 76.6775 42.7957V43.4285Z" fill="black"/>
<path fill-rule="evenodd" clip-rule="evenodd" d="M89.6357 27.2495C89.6357 27.0385 89.7563 26.918 89.9973 26.918H91.233C91.474 26.918 91.5946 27.0385 91.5946 27.2495V43.3723C91.5946 44.4572 91.6247 44.8188 91.8658 45.2708C92.0165 45.4818 92.3781 45.6023 92.9507 45.6023H93.7644C93.9452 45.6023 94.126 45.6324 94.126 45.9338V46.9585C94.126 47.1996 94.0356 47.3201 93.8246 47.3201H92.6795C91.5946 47.3201 90.811 47.079 90.359 46.627C89.8768 46.1147 89.6357 45.1804 89.6357 43.8545V27.2495" fill="black"/>
<path fill-rule="evenodd" clip-rule="evenodd" d="M97.0801 28.5727C97.0801 27.6083 97.6225 27.1562 98.4664 27.1562H98.5869C99.4609 27.1562 99.9129 27.6384 99.9129 28.5727V28.7535C99.9129 29.7178 99.4006 30.2 98.5869 30.2H98.4664C97.4719 30.2 97.0801 29.748 97.0801 28.7535V28.5727ZM97.5318 32.8826C97.5318 32.6716 97.6523 32.5511 97.8934 32.5511H99.129C99.3701 32.5511 99.4906 32.6716 99.4906 32.8826V47.0767C99.4906 47.2273 99.4002 47.3177 99.2194 47.3177H97.7729C97.6222 47.3177 97.5318 47.2273 97.5318 47.0767V32.8826Z" fill="black"/>
<path fill-rule="evenodd" clip-rule="evenodd" d="M103.317 39.3894C103.317 34.0554 105.095 32.2773 109.104 32.2773C111.032 32.2773 112.388 32.8801 113.202 34.0855H113.262L113.413 32.9102C113.443 32.6691 113.594 32.5486 113.865 32.5486H114.588C114.92 32.5486 115.01 32.6088 115.01 32.9403V52.3178C115.01 52.5288 114.92 52.6493 114.709 52.6493H113.353C113.142 52.6493 113.051 52.5288 113.051 52.3178V45.9893H112.991C112.147 47.044 110.821 47.5865 109.013 47.5865C104.915 47.5865 103.317 45.6276 103.317 40.8058V39.3894ZM105.306 40.6566C105.306 42.7059 105.638 44.1223 106.301 44.8757C106.934 45.599 107.778 45.9003 109.254 45.9003C111.665 45.9003 113.051 44.6647 113.051 42.284V37.8239C113.051 35.3828 111.665 33.9664 109.134 33.9664C107.808 33.9664 107.024 34.2377 106.421 34.8705C105.668 35.6842 105.306 37.2814 105.306 39.6621V40.6566Z" fill="black"/>
<path fill-rule="evenodd" clip-rule="evenodd" d="M118.928 33.033C118.928 32.7617 119.109 32.5508 119.35 32.5508H120.465C120.736 32.5508 120.887 32.7014 120.887 32.9727V42.8272C120.887 44.0326 121.097 44.6956 121.67 45.1778C122.182 45.66 123.086 45.9011 124.382 45.9011C125.618 45.9011 126.552 45.6298 127.155 45.0572C127.667 44.5751 127.848 44.0326 127.848 42.8272V32.9425C127.848 32.7014 127.999 32.5508 128.21 32.5508H129.475C129.686 32.5508 129.807 32.6713 129.807 32.9425V43.0682C129.807 44.6052 129.355 45.7504 128.481 46.5037C127.607 47.2572 126.432 47.5887 124.382 47.5887C122.514 47.5887 121.158 47.227 120.284 46.5037C119.38 45.7504 118.928 44.6052 118.928 43.0682V33.033" fill="black"/>
<path fill-rule="evenodd" clip-rule="evenodd" d="M132.939 42.7647C132.939 40.9264 133.753 39.5703 135.29 38.9675C135.983 38.6963 137.189 38.5456 138.906 38.5456H139.81C140.564 38.5456 141.227 38.5758 141.83 38.636V36.9183C141.83 34.7184 140.715 33.965 138.183 33.965C137.128 33.965 136.104 34.1156 135.079 34.417C134.627 34.5375 134.386 34.5375 134.296 34.1759L134.145 33.543C134.024 33.1814 134.115 32.9705 134.476 32.8801C135.772 32.4883 137.068 32.2773 138.334 32.2773C142.191 32.2773 143.788 33.5732 143.788 36.7073V47.0139C143.788 47.255 143.728 47.3152 143.457 47.3152H142.462C142.191 47.3152 142.071 47.2248 142.071 47.0139L142.01 45.9893H141.95C141.287 47.044 140.232 47.5865 138.756 47.5865H137.249C135.923 47.5865 134.718 47.1947 134.024 46.5015C133.301 45.7783 132.939 44.8441 132.939 43.6688V42.7647ZM134.928 43.4285C134.928 44.3628 135.139 44.9956 135.561 45.3874C135.953 45.749 136.556 45.9298 137.4 45.9298H138.635C140.654 45.9298 141.83 44.845 141.83 42.7957V40.2944C141.347 40.2341 140.745 40.204 140.021 40.204H138.334C137.068 40.204 136.194 40.4149 135.682 40.8067C135.17 41.1985 134.928 41.8615 134.928 42.7957V43.4285Z" fill="black"/>
</svg>
