<svg width="64" height="66" viewBox="0 0 64 66" fill="none" xmlns="http://www.w3.org/2000/svg">
<path d="M60.879 52.2245H58.51V44.4844C58.51 43.7783 57.9407 43.206 57.2385 43.206C56.5363 43.206 55.967 43.7784 55.967 44.4844V52.2245H53.1148H53.1093H44.019H44.0134H34.923H34.9186H25.8235H25.8179H18.0769C16.6317 52.2245 15.4559 53.4077 15.4559 54.8622V61.0165H6.55759C4.61962 61.0165 3.0431 59.4333 3.0431 57.4872C3.0431 55.5392 4.61962 53.9545 6.55759 53.9545H9.98333C11.5845 53.9545 12.8871 52.647 12.8871 51.0399V19.7971H34.0442L24.7314 29.1533C24.4358 29.4503 24.1879 29.687 23.9691 29.8959C23.8893 29.9721 23.8137 30.0447 23.7411 30.1152C23.731 30.1247 23.7202 30.1332 23.7104 30.1431C23.7057 30.1478 23.7018 30.153 23.6973 30.1577C22.8492 30.9846 22.4667 31.4915 21.8546 33.103C20.6195 36.3469 19.3879 39.5909 18.156 42.8355C17.8932 43.5294 18.0595 44.315 18.5795 44.8367C18.9364 45.1947 19.4019 45.3832 19.882 45.3832C20.1089 45.3832 20.3393 45.3411 20.5629 45.2547C23.7921 44.0177 27.0214 42.7806 30.2495 41.5401C31.8621 40.9221 32.3669 40.5358 33.1959 39.6763C33.1966 39.6755 33.1976 39.6748 33.1984 39.674C33.2 39.6724 33.2013 39.6706 33.2029 39.6689C33.2823 39.5865 33.3645 39.5001 33.4511 39.4084C33.6569 39.1906 33.8903 38.9436 34.1818 38.6501L52.5135 20.2381C54.5777 21.1088 55.9669 23.1577 55.9669 25.4443V33.0928C55.9669 33.7989 56.5362 34.3712 57.2384 34.3712C57.9406 34.3712 58.5099 33.7987 58.5099 33.0928V25.4443C58.5099 22.471 56.895 19.7751 54.4084 18.3348L56.4872 16.247C56.4897 16.2444 56.4925 16.2424 56.4951 16.2397C56.4975 16.2373 56.4995 16.2346 56.5019 16.2321L61.1261 11.5877C62.0218 10.6878 62.5146 9.48772 62.5137 8.20829C62.5128 6.93063 62.0197 5.73321 61.1266 4.83857L58.3913 2.08711C56.5387 0.226107 53.5244 0.226234 51.672 2.08711L36.5893 17.2401H12.887V15.9691C12.887 14.362 11.5843 13.0545 9.9832 13.0545H6.55759C3.21746 13.0545 0.5 15.7847 0.5 19.1407V57.4872C0.5 60.8432 3.21746 63.5734 6.55759 63.5734H15.5071C15.7466 64.7795 16.8075 65.6914 18.077 65.6914H27.9962C28.6984 65.6914 29.2676 65.119 29.2676 64.413C29.2676 63.7069 28.6984 63.1346 27.9962 63.1346H18.0769C18.0381 63.1346 17.9988 63.0956 17.9988 63.0574V54.8623C17.9988 54.8216 18.0375 54.7816 18.0769 54.7816H24.5572L24.5697 57.7194C24.5727 58.4236 25.1413 58.9923 25.841 58.9923H25.8466C26.5488 58.9893 27.1157 58.4145 27.1126 57.7083L27.1001 54.7816H33.6555L33.6655 57.7182C33.668 58.4228 34.2367 58.9923 34.9369 58.9923H34.9413C35.6435 58.9899 36.2109 58.4156 36.2085 57.7095L36.1985 54.7816H42.7525L42.765 57.7193C42.7681 58.4235 43.3367 58.9923 44.0364 58.9923H44.042C44.7442 58.9894 45.3111 58.4144 45.308 57.7085L45.2957 54.7816H51.8484L51.8609 57.7193C51.8639 58.4235 52.4326 58.9923 53.1323 58.9923H53.1378C53.84 58.9894 54.4069 58.4144 54.4039 57.7085L54.3915 54.7816H60.8789C60.9204 54.7816 60.9569 54.8193 60.9569 54.8623V63.0574C60.9569 63.0978 60.9197 63.1346 60.8789 63.1346H39.3401C38.6379 63.1346 38.0686 63.707 38.0686 64.413C38.0686 65.1191 38.6379 65.6914 39.3401 65.6914H60.879C62.3242 65.6914 63.5 64.5097 63.5 63.0573V54.8622C63.5 53.4078 62.3241 52.2245 60.879 52.2245ZM37.9998 19.4377C38.0104 19.4274 38.0207 19.417 38.0308 19.4064L47.9372 9.45382L49.9667 11.4915L28.4543 33.1015L26.4262 31.0642C26.4604 31.03 26.4931 30.9979 26.5286 30.9624L37.9998 19.4377ZM22.2441 39.2407L24.1413 41.1464C23.1183 41.5386 22.0959 41.9314 21.0723 42.3235C21.4623 41.296 21.8537 40.2681 22.2441 39.2407ZM29.3429 39.1513C28.4772 39.484 27.611 39.8154 26.7452 40.1477L23.2383 36.6248C23.569 35.7552 23.8986 34.8858 24.2298 34.0162C24.4156 33.5269 24.5534 33.1994 24.6954 32.9399L30.4138 38.6842C30.1551 38.8267 29.8288 38.9651 29.3429 39.1513ZM32.3848 36.8413C32.3844 36.8417 32.3841 36.8421 32.3837 36.8424C32.3478 36.8786 32.3158 36.9115 32.2817 36.9462L30.2534 34.9088L51.7662 13.2983L53.7957 15.3361L32.3848 36.8413ZM53.4692 3.89607C53.9 3.46316 54.4659 3.24683 55.0317 3.24683C55.5973 3.24683 56.163 3.46316 56.5932 3.89543L59.3299 6.64803C59.7427 7.06165 59.9704 7.6163 59.9707 8.20994C59.9711 8.80522 59.7431 9.36242 59.3289 9.77857L55.595 13.529L49.7362 7.64652L53.4692 3.89607ZM3.04298 19.1407C3.04298 17.1947 4.61949 15.6114 6.55747 15.6114H9.9832C10.1788 15.6114 10.344 15.7752 10.344 15.9691V51.0397C10.344 51.2336 10.1789 51.3974 9.9832 51.3974H6.55759C5.24836 51.3974 4.03482 51.8172 3.0431 52.5297L3.04298 19.1407Z" fill="#473184"/>
</svg>
