<svg width="64" height="65" viewBox="0 0 64 65" fill="none" xmlns="http://www.w3.org/2000/svg">
<g clip-path="url(#clip0_13053_1977)">
<path d="M54.2544 8.3291L49.3709 12.4589L47.4561 10.3537C46.9886 9.83995 46.1925 9.80174 45.6779 10.2686C45.1634 10.7355 45.1253 11.5307 45.5928 12.0449L48.3249 15.0486C48.5729 15.3211 48.914 15.4605 49.257 15.4605C49.5448 15.4605 49.8339 15.3623 50.0699 15.1627L55.8811 10.2483C56.4118 9.79962 56.4778 9.0063 56.0285 8.4763C55.5793 7.94605 54.7849 7.88037 54.2544 8.3291Z" fill="#473184"/>
<path d="M62.375 11.7447C62.375 5.39578 57.1808 0.230469 50.7963 0.230469C47.8585 0.230469 45.1739 1.32456 43.13 3.12307C40.2937 2.12212 37.3275 1.61384 34.3007 1.61384C30.2419 1.61384 26.3452 2.50767 22.7187 4.27035C22.0935 4.57424 21.8334 5.32673 22.1375 5.95125C22.3554 6.39847 22.8038 6.65867 23.2704 6.65867C23.4553 6.65867 23.6429 6.61784 23.8203 6.53169C27.1008 4.93707 30.6269 4.12876 34.3008 4.12876C36.6893 4.12876 39.0355 4.47823 41.2984 5.16742C40.2918 6.59986 39.6021 8.2679 39.3368 10.072C37.6678 9.57487 35.9399 9.32341 34.1804 9.32341C24.9784 9.32341 17.2518 16.2047 16.2077 25.3299C16.1287 26.0198 16.6247 26.6431 17.3154 26.7219C18.0055 26.7996 18.63 26.3055 18.709 25.6153C19.6078 17.7611 26.259 11.8382 34.1805 11.8382C35.9194 11.8382 37.622 12.1231 39.2532 12.6861C39.692 18.0565 43.8517 22.3963 49.1582 23.1468L49.1612 23.1483C49.5523 24.5303 49.75 25.9595 49.75 27.4077C49.75 31.8948 47.8337 36.1252 44.4768 39.0853H38.9854V30.5706C38.9854 29.555 39.8114 28.7287 40.8268 28.7287C41.8422 28.7287 42.6683 29.555 42.6683 30.5706C42.6683 31.265 43.2319 31.8281 43.927 31.8281C44.6222 31.8281 45.1858 31.265 45.1858 30.5706C45.1858 28.1683 43.2303 26.2138 40.8268 26.2138C38.4233 26.2138 36.4678 28.1683 36.4678 30.5706V39.0853H31.9107V30.5706C31.9107 28.1683 29.9552 26.2138 27.5517 26.2138C25.1482 26.2138 23.1927 28.1683 23.1927 30.5706C23.1927 31.265 23.7563 31.8281 24.4514 31.8281C25.1465 31.8281 25.7102 31.265 25.7102 30.5706C25.7102 29.555 26.5362 28.7287 27.5515 28.7287C28.5669 28.7287 29.393 29.555 29.393 30.5706V39.0853H23.8867C22.7549 38.0899 21.773 36.9372 20.9675 35.65C20.5992 35.0612 19.8227 34.8821 19.2329 35.2503C18.6433 35.6183 18.4642 36.3941 18.8327 36.9831C19.7937 38.5186 20.9692 39.892 22.3304 41.0701L23.8655 45.8093C24.5732 48.0022 25.7447 49.2008 27.351 49.3806V49.6197C27.351 53.3818 30.4145 56.4424 34.1803 56.4424C37.944 56.4424 41.006 53.3818 41.006 49.6197V49.3784C42.6089 49.198 43.7819 48.0024 44.4945 45.8107L46.0303 41.0692C49.999 37.6272 52.2673 32.6695 52.2673 27.4078C52.2673 25.9902 52.1029 24.5881 51.779 23.2207C53.8158 23.0495 55.7042 22.3517 57.3055 21.2651C57.9678 23.4827 58.3036 25.7831 58.3036 28.1261C58.3036 33.9726 56.1767 39.6045 52.3148 43.9841C52.1123 44.2136 52.0007 44.5092 52.0007 44.8151V61.6407H19.7823V54.8532C19.7824 54.1208 19.7827 53.4289 19.3983 52.8157C18.8067 51.8718 17.737 51.7626 16.984 51.7626H12.1037C11.1078 51.7626 10.2975 50.9523 10.2975 49.9561V40.3502C10.2975 39.6558 9.7339 39.0928 9.03878 39.0928H4.32665C4.36828 39.0003 4.41928 38.8923 4.48203 38.7663L10.0977 27.4923C10.1042 27.4795 10.1097 27.4703 10.114 27.4629C10.2369 27.2487 10.3222 27.0326 10.3384 26.677C10.6345 21.7352 12.4227 17.0723 15.5098 13.1927C15.9424 12.6491 15.8518 11.8582 15.3077 11.4261C14.7634 10.9938 13.9715 11.0841 13.5389 11.628C10.1559 15.8793 8.1849 20.9813 7.83365 26.3921L2.22778 37.6466C1.76353 38.5796 1.31753 39.6545 1.90753 40.6057C2.52928 41.6079 3.8259 41.6079 4.31403 41.6079H7.78003V49.9562C7.78003 52.339 9.71953 54.2776 12.1037 54.2776H16.984C17.0985 54.2776 17.1875 54.282 17.2559 54.2881C17.2649 54.4529 17.2648 54.6741 17.2648 54.8528V62.0917C17.2648 63.2297 18.1914 64.1558 19.3304 64.1558H52.4525C53.5915 64.1558 54.5183 63.2297 54.5183 62.0917V45.2833C58.5863 40.4979 60.8214 34.4244 60.8214 28.126C60.8214 25.1582 60.3332 22.2514 59.3719 19.4725C61.2363 17.4274 62.375 14.7165 62.375 11.7447ZM38.4887 49.6197C38.4887 51.9952 36.556 53.9276 34.1804 53.9276C31.8029 53.9276 29.8687 51.9952 29.8687 49.6197V49.4053H38.4885V49.6197H38.4887ZM42.0998 45.0351C41.4965 46.8904 40.8248 46.8904 40.5719 46.8904H27.7853C27.5322 46.8904 26.8597 46.8904 26.2614 45.0365L25.1484 41.6004H30.6519H37.7265H43.2123L42.0998 45.0351ZM50.7963 20.7476C45.9564 20.7476 41.9904 16.9608 41.7439 12.2136C41.739 12.0739 41.7359 11.9342 41.7352 11.7948C41.735 11.7712 41.7335 11.7478 41.7322 11.7245C41.7433 6.77154 45.8049 2.74539 50.7963 2.74539C55.7927 2.74539 59.8575 6.7824 59.8575 11.7448C59.8575 16.709 55.7927 20.7476 50.7963 20.7476Z" fill="#473184"/>
<path d="M18.4358 9.73236C18.6757 9.73236 18.9183 9.66394 19.133 9.52098L19.1542 9.50687C19.7327 9.1217 19.889 8.34099 19.5033 7.76317C19.1178 7.18547 18.3362 7.02916 17.7577 7.41446L17.7365 7.42856C17.158 7.81374 17.0017 8.59444 17.3873 9.17227C17.6298 9.53571 18.0291 9.73236 18.4358 9.73236Z" fill="#473184"/>
<path d="M16.999 31.2606C17.1741 31.7885 17.6657 32.1227 18.1937 32.1227C18.325 32.1227 18.4585 32.1021 18.59 32.0587C19.2498 31.8402 19.6075 31.1288 19.3888 30.4695L19.3817 30.4482C19.163 29.789 18.4507 29.4316 17.7908 29.6501C17.131 29.8686 16.7733 30.58 16.992 31.2393L16.999 31.2606Z" fill="#473184"/>
</g>
<defs>
<clipPath id="clip0_13053_1977">
<rect width="64" height="63.9249" fill="white" transform="translate(0 0.230469)"/>
</clipPath>
</defs>
</svg>
