<svg width="66" height="66" viewBox="0 0 66 66" fill="none" xmlns="http://www.w3.org/2000/svg">
<path d="M50.9982 15.2216C50.3436 15.4198 49.9682 16.1295 50.1597 16.8068C50.6309 18.4734 50.87 20.2144 50.87 21.9815C50.87 30.0737 47.6338 34.2465 44.7785 37.9279C43.2396 39.9122 41.7758 41.8014 41.0409 44.0577H37.7077L39.643 32.496H41.8687C42.5508 32.496 43.1037 31.9239 43.1037 31.2182C43.1037 30.5124 42.5508 29.9404 41.8687 29.9404H24.1339C23.4518 29.9404 22.8989 30.5124 22.8989 31.2182C22.8989 31.9239 23.4518 32.496 24.1339 32.496H26.3594L28.2919 44.0577H24.9615C24.2266 41.8012 22.7621 39.9118 21.2226 37.9275C18.3665 34.246 15.1291 30.0733 15.1291 21.9815C15.1291 11.7913 23.1458 3.50096 32.9995 3.50096C37.1836 3.50096 41.2511 5.0265 44.4527 7.79666C44.9759 8.24938 45.7547 8.17741 46.1923 7.63613C46.6298 7.09472 46.5604 6.28887 46.0371 5.83615C42.392 2.68219 37.7618 0.945312 32.9995 0.945312C21.7838 0.945312 12.6592 10.3821 12.6592 21.9815C12.6592 30.9721 16.3395 35.7157 19.2965 39.5273C20.6789 41.3092 21.9014 42.8884 22.5297 44.614C21.3571 45.3229 20.5671 46.6383 20.5671 48.1418C20.5671 49.8698 21.6107 51.3496 23.0798 51.945C22.818 52.4907 22.6699 53.1047 22.6699 53.7542C22.6699 55.5107 23.7477 57.0117 25.255 57.587V61.1967C25.255 63.5357 27.0962 65.4387 29.3595 65.4387H36.6394C38.9026 65.4387 40.744 63.5357 40.744 61.1967V57.587C42.2513 57.0115 43.329 55.5107 43.329 53.7542C43.329 53.1049 43.1811 52.4911 42.9194 51.9455C44.3903 51.3503 45.4353 49.8703 45.4353 48.1418C45.4353 46.6389 44.6452 45.3241 43.4723 44.6149C44.1004 42.889 45.3226 41.3095 46.7046 39.5274C49.6607 35.7159 53.3396 30.9723 53.3396 21.9815C53.3396 19.9714 53.0672 17.989 52.53 16.0892C52.3387 15.4118 51.6526 15.0229 50.9982 15.2216ZM28.8658 32.496H37.1362L35.2009 44.0577H30.7983L28.8658 32.496ZM39.3807 55.2825H38.1593C37.4772 55.2825 36.9244 55.8546 36.9244 56.5603C36.9244 57.2661 37.4772 57.8382 38.1593 57.8382H38.2742V61.1966C38.2742 62.1265 37.5409 62.8829 36.6395 62.8829H29.3597C28.4583 62.8829 27.725 62.1265 27.725 61.1966V57.8164C28.301 57.7082 28.7382 57.1875 28.7382 56.5602C28.7382 55.8545 28.1853 55.2824 27.5032 55.2824H26.6184C25.8031 55.2824 25.1398 54.5968 25.1398 53.7539C25.1398 52.9111 25.8031 52.2255 26.6184 52.2255H39.3807C40.196 52.2255 40.8592 52.9111 40.8592 53.7539C40.8592 54.5968 40.196 55.2825 39.3807 55.2825ZM41.4835 49.6699H39.3807H26.6184H24.5156C23.7003 49.6699 23.037 48.9843 23.037 48.1416C23.037 47.2989 23.7003 46.6132 24.5156 46.6132H29.7531C29.7545 46.6132 29.7558 46.6133 29.7572 46.6133C29.7585 46.6133 29.76 46.6132 29.7613 46.6132H36.2376C36.239 46.6132 36.2404 46.6133 36.2418 46.6133C36.2431 46.6133 36.2445 46.6132 36.2458 46.6132H41.4834C42.3005 46.6132 42.9653 47.2988 42.9653 48.1416C42.9655 48.9843 42.3006 49.6699 41.4835 49.6699Z" fill="#473184"/>
<path d="M64.1453 23.7656H60.3959C59.7873 23.7656 59.2939 24.4319 59.2939 25.2539C59.2939 26.0759 59.7873 26.7422 60.3959 26.7422H64.1453C64.7539 26.7422 65.2472 26.0759 65.2472 25.2539C65.2472 24.4319 64.7539 23.7656 64.1453 23.7656Z" fill="#473184"/>
<path d="M60.4202 10.8673C60.7083 10.8673 60.9965 10.7574 61.2163 10.5375L63.9249 7.82951C64.3649 7.38975 64.365 6.67644 63.9253 6.23646C63.4855 5.79637 62.7725 5.79614 62.3327 6.23601L59.624 8.94393C59.184 9.38369 59.1839 10.097 59.6236 10.537C59.8436 10.7571 60.1319 10.8673 60.4202 10.8673Z" fill="#473184"/>
<path d="M61.2162 36.0016C60.7762 35.5618 60.0632 35.562 59.6236 36.0021C59.1839 36.4421 59.184 37.1554 59.624 37.5952L62.3327 40.3032C62.5526 40.523 62.8407 40.6329 63.1288 40.6329C63.4171 40.6329 63.7055 40.5228 63.9253 40.3027C64.365 39.8627 64.3649 39.1494 63.9249 38.7096L61.2162 36.0016Z" fill="#473184"/>
<path d="M5.60424 23.7656H1.85486C1.24626 23.7656 0.75293 24.432 0.75293 25.2539C0.75293 26.0759 1.24626 26.7422 1.85486 26.7422H5.60424C6.21284 26.7422 6.70617 26.0759 6.70617 25.2539C6.70617 24.432 6.21284 23.7656 5.60424 23.7656Z" fill="#473184"/>
<path d="M4.39942 10.5375C4.66327 10.7574 5.00901 10.8673 5.35474 10.8673C5.70074 10.8673 6.04674 10.7571 6.3106 10.5371C6.83818 10.0971 6.83805 9.38374 6.31006 8.94396L3.05963 6.23603C2.53165 5.79614 1.67603 5.79636 1.14845 6.23648C0.620867 6.67648 0.621136 7.38971 1.14898 7.82949L4.39942 10.5375Z" fill="#473184"/>
<path d="M4.39944 36.0016L1.14903 38.7096C0.621053 39.1494 0.620919 39.8627 1.14849 40.3027C1.41248 40.5228 1.75835 40.6329 2.10435 40.6329C2.45008 40.6329 2.79581 40.523 3.05966 40.3032L6.31007 37.5952C6.83804 37.1555 6.83818 36.4421 6.3106 36.0021C5.7829 35.5619 4.92714 35.5618 4.39944 36.0016Z" fill="#473184"/>
<path d="M48.7188 12.2969C49.0112 12.6618 49.4413 12.8516 49.8754 12.8516C50.1996 12.8516 50.5263 12.7457 50.7991 12.5278C51.4373 12.0179 51.5408 11.088 51.0302 10.4505L51.0136 10.4297C50.5031 9.79236 49.5716 9.68904 48.9334 10.1989C48.2952 10.7087 48.1917 11.6387 48.7023 12.2761L48.7188 12.2969Z" fill="#473184"/>
</svg>
