<svg width="66" height="66" viewBox="0 0 66 66" fill="none" xmlns="http://www.w3.org/2000/svg">
<g clip-path="url(#clip0_13053_1955)">
<path d="M26.2905 59.854C26.9965 59.854 27.569 59.2816 27.569 58.5754C27.569 57.8693 26.9966 57.2969 26.2905 57.2969H19.969C19.2629 57.2969 18.6904 57.8693 18.6904 58.5754C18.6904 59.2816 19.2628 59.854 19.969 59.854H26.2905Z" fill="#473184"/>
<path d="M63.7139 43.507C63.6021 41.144 62.5622 38.8638 60.7858 37.0864L60.2755 36.5758C59.7763 36.0762 58.9667 36.0762 58.4674 36.5753C57.9679 37.0745 57.9676 37.8841 58.4669 38.3835L58.9772 38.8941C61.6719 41.5903 61.923 45.5633 59.5487 47.9389L52.3719 55.12C51.7123 55.7797 50.0898 56.3242 47.9508 56.0532L31.2901 53.9676C29.5864 53.7541 28.7697 52.3588 28.8663 51.1543C28.9064 50.6541 29.1811 49.4984 30.8377 49.5559L35.3771 49.7177C36.6591 49.7631 38.255 49.8195 38.7632 48.6188C39.1687 47.661 38.4629 46.8284 38.2311 46.5548C37.9131 46.1799 37.4745 45.7583 36.9192 45.2246C36.5902 44.9084 36.2173 44.55 35.8234 44.1561L22.8102 31.1352C22.4053 30.7301 22.2069 30.3016 22.2205 29.8617C22.2321 29.4886 22.4047 29.1086 22.6942 28.8193C22.9832 28.5305 23.3624 28.3584 23.7345 28.3471C24.1757 28.3331 24.6007 28.5322 25.0051 28.9368L37.8997 41.839C38.3987 42.3385 39.2083 42.3386 39.7077 41.8395C40.2073 41.3403 40.2075 40.5307 39.7082 40.0313L34.7508 35.071C34.7327 35.0504 34.7139 35.0304 34.6944 35.0108C34.2899 34.6067 34.0918 34.1794 34.1051 33.7405C34.1165 33.368 34.2888 32.9884 34.578 32.699C34.8671 32.4097 35.2469 32.2369 35.6194 32.2254C36.0575 32.2105 36.4858 32.4095 36.8894 32.8128L38.4961 34.4216C38.5278 34.4549 38.5602 34.4881 38.5933 34.5212C38.6088 34.5367 38.6244 34.5516 38.6405 34.5661L41.9028 37.8327C42.4018 38.3322 43.2113 38.333 43.7109 37.8338C44.2106 37.3348 44.211 36.5253 43.7121 36.0257L40.3323 32.6414C39.9744 32.2576 39.7994 31.8539 39.8121 31.44C39.8236 31.0669 39.9962 30.687 40.2857 30.3977C40.5747 30.1088 40.9539 29.9367 41.326 29.9254C41.5951 29.9173 41.861 29.99 42.1202 30.1409C42.1222 30.142 42.1242 30.1431 42.1263 30.1441C42.286 30.238 42.4432 30.3615 42.5967 30.5151L44.2884 32.2079C44.2922 32.2117 44.2963 32.2157 44.3002 32.2196C44.3021 32.2215 44.3039 32.2234 44.3058 32.2251L45.9065 33.827C46.4058 34.3265 47.2152 34.3266 47.7147 33.8275C48.2142 33.3283 48.2144 32.5187 47.7152 32.0193L46.1019 30.405C44.9716 29.2667 45.8165 28.3071 45.9977 28.126C46.5093 27.6143 47.4207 27.3301 48.3035 28.2136L50.4166 30.328C50.9159 30.8275 51.7253 30.8275 52.2248 30.3285C52.7243 29.8293 52.7246 29.0197 52.2254 28.5203L50.1122 26.4059C48.1615 24.4539 45.6048 24.9032 44.19 26.3172C44.128 26.3791 44.0686 26.4436 44.0105 26.5093V20.155C47.7518 18.6689 50.4039 15.0278 50.4039 10.7793C50.4039 5.21713 45.8563 0.691406 40.2665 0.691406C40.0221 0.691406 39.7805 0.703083 39.5402 0.720216H9.06155C5.32068 0.720216 2.27734 3.76508 2.27734 7.5076V58.904C2.27734 62.6467 5.32068 65.6914 9.06155 65.6914H13.9096C14.6157 65.6914 15.1882 65.119 15.1882 64.4129C15.1882 63.7067 14.6157 63.1344 13.9096 63.1344H9.06155C6.73072 63.1344 4.83433 61.2366 4.83433 58.904V54.0191H27.0437C27.7918 55.2742 29.1035 56.2707 30.9723 56.5048L41.4533 57.8169V58.904C41.4533 61.2366 39.5572 63.1344 37.2263 63.1344H25.2984C24.5923 63.1344 24.0198 63.7068 24.0198 64.413C24.0198 65.1192 24.5922 65.6916 25.2984 65.6916H37.2263C40.9671 65.6916 44.0105 62.6467 44.0105 58.9042V58.1371L47.6313 58.5903C48.1068 58.6506 48.5768 58.68 49.0364 58.68C51.1625 58.6799 53.0589 58.0498 54.1803 56.9276L61.3572 49.7465C62.9901 48.1128 63.8269 45.897 63.7139 43.507ZM47.8466 10.7799C47.8466 14.9348 44.4462 18.3149 40.2664 18.3149C36.0867 18.3149 32.6862 14.9348 32.6862 10.7799C32.6862 6.62705 36.0867 3.2484 40.2664 3.2484C44.4462 3.2484 47.8466 6.62705 47.8466 10.7799ZM4.83433 51.4622V7.5076C4.83433 5.17499 6.7306 3.27721 9.06155 3.27721H33.4982C31.4318 5.12537 30.1293 7.80382 30.1293 10.7799C30.1293 16.3447 34.6769 20.8721 40.2665 20.8721C40.6682 20.8721 41.0637 20.846 41.4533 20.8006V27.3692C41.3828 27.3677 41.3145 27.3679 41.249 27.3698C40.2179 27.401 39.234 27.8341 38.4782 28.5894C38.0485 29.0187 37.7092 29.5414 37.4965 30.1162C36.7587 29.7374 36.0657 29.6534 35.5398 29.6697C34.5086 29.7018 33.5247 30.1358 32.7693 30.8916C32.3857 31.2755 32.085 31.7185 31.8781 32.1965L26.8139 27.1293C25.6658 25.9805 24.187 25.5412 22.7562 25.924C21.3395 26.3031 20.1784 27.4637 19.7982 28.8809C19.4141 30.3126 19.8528 31.7931 21.0016 32.9426L34.0148 45.9634C34.4267 46.3756 34.8096 46.7434 35.1472 47.068C35.1768 47.0965 35.2066 47.125 35.2365 47.1537L30.9285 47.0001C28.4091 46.91 26.5111 48.5349 26.3174 50.9497C26.3038 51.1188 26.3001 51.2899 26.3042 51.4619H4.83433V51.4622Z" fill="#473184"/>
<path d="M16.1571 24.1052C16.4067 24.3551 16.734 24.48 17.0614 24.48C17.3884 24.48 17.7155 24.3553 17.9651 24.1059C18.4647 23.6067 18.4649 22.7971 17.9656 22.2977L15.2631 19.5935C14.764 19.0941 13.9544 19.0938 13.4549 19.593C12.9554 20.0921 12.9551 20.9017 13.4544 21.4011L16.1571 24.1052Z" fill="#473184"/>
<path d="M22.1584 22.4417C22.8645 22.4417 23.437 21.8693 23.437 21.1632V17.3372C23.437 16.6311 22.8646 16.0586 22.1584 16.0586C21.4523 16.0586 20.8799 16.631 20.8799 17.3372V21.1632C20.8799 21.8693 21.4524 22.4417 22.1584 22.4417Z" fill="#473184"/>
<path d="M16.3353 28.2629C16.3353 27.5569 15.7629 26.9844 15.0568 26.9844H11.2366C10.5305 26.9844 9.95801 27.5568 9.95801 28.2629C9.95801 28.9691 10.5304 29.5415 11.2366 29.5415H15.0568C15.7628 29.5415 16.3353 28.969 16.3353 28.2629Z" fill="#473184"/>
<path d="M16.2915 32.3396L13.5891 35.0438C13.0899 35.5433 13.0901 36.3529 13.5896 36.852C13.8392 37.1015 14.1663 37.2262 14.4933 37.2262C14.8207 37.2262 15.148 37.1013 15.3976 36.8514L18.1001 34.1472C18.5992 33.6478 18.599 32.8382 18.0995 32.339C17.6003 31.8398 16.7908 31.8402 16.2915 32.3396Z" fill="#473184"/>
<path d="M27.094 24.6089C27.4211 24.6089 27.7482 24.4843 27.9978 24.2348L30.7039 21.5307C31.2035 21.0315 31.2037 20.222 30.7046 19.7225C30.2055 19.2229 29.3961 19.2227 28.8964 19.7219L26.1903 22.4259C25.6907 22.9251 25.6905 23.7346 26.1896 24.2341C26.4393 24.484 26.7666 24.6089 27.094 24.6089Z" fill="#473184"/>
<path d="M37.5538 9.46862C37.0789 8.94611 36.2703 8.9074 35.7478 9.38232C35.2252 9.85724 35.1865 10.6658 35.6615 11.1883L38.0046 13.7665C38.2564 14.0436 38.6029 14.1852 38.9513 14.1852C39.2432 14.1852 39.5362 14.0857 39.776 13.8833L44.7677 9.66535C45.3071 9.20959 45.3748 8.40291 44.919 7.86351C44.4635 7.32411 43.6568 7.25647 43.1173 7.7121L39.0675 11.1342L37.5538 9.46862Z" fill="#473184"/>
<path d="M54.3532 34.2594C54.6056 34.575 54.9773 34.7393 55.3524 34.7393C55.6324 34.7393 55.9145 34.6476 56.1502 34.459C56.7017 34.0179 56.791 33.2133 56.3499 32.662L56.3355 32.644C55.8946 32.0927 55.0901 32.0031 54.5385 32.4443C53.9871 32.8855 53.8977 33.69 54.3389 34.2414L54.3532 34.2594Z" fill="#473184"/>
<path d="M19.625 63.1289H19.5998C18.8938 63.1289 18.3213 63.7013 18.3213 64.4075C18.3213 65.1136 18.8937 65.686 19.5998 65.686H19.625C20.331 65.686 20.9035 65.1136 20.9035 64.4075C20.9035 63.7013 20.3311 63.1289 19.625 63.1289Z" fill="#473184"/>
</g>
<defs>
<clipPath id="clip0_13053_1955">
<rect width="65" height="65" fill="white" transform="translate(0.5 0.691406)"/>
</clipPath>
</defs>
</svg>
