<svg width="45" height="46" viewBox="0 0 45 46" fill="none" xmlns="http://www.w3.org/2000/svg">
<path d="M22.9903 45.7794C35.1454 45.7794 44.9991 35.9257 44.9991 23.7705C44.9991 11.6154 35.1454 1.76172 22.9903 1.76172C10.8351 1.76172 0.981445 11.6154 0.981445 23.7705C0.981445 35.9257 10.8351 45.7794 22.9903 45.7794Z" fill="url(#paint0_radial_12707_32024)"/>
<path d="M22.9903 45.7794C35.1454 45.7794 44.9991 35.9257 44.9991 23.7705C44.9991 11.6154 35.1454 1.76172 22.9903 1.76172C10.8351 1.76172 0.981445 11.6154 0.981445 23.7705C0.981445 35.9257 10.8351 45.7794 22.9903 45.7794Z" fill="url(#paint1_radial_12707_32024)"/>
<path d="M22.9903 45.7794C35.1454 45.7794 44.9991 35.9257 44.9991 23.7705C44.9991 11.6154 35.1454 1.76172 22.9903 1.76172C10.8351 1.76172 0.981445 11.6154 0.981445 23.7705C0.981445 35.9257 10.8351 45.7794 22.9903 45.7794Z" fill="url(#paint2_radial_12707_32024)"/>
<path d="M36.5788 25.3336L30.3778 28.761L24.1768 25.3336L30.3778 21.9062L36.5788 25.3336Z" fill="url(#paint3_linear_12707_32024)"/>
<path d="M36.5809 25.332L30.3799 28.7594V34.9891L36.5809 31.5618V25.332Z" fill="url(#paint4_linear_12707_32024)"/>
<path d="M24.1768 25.332L30.3778 28.7594V34.9891L24.1768 31.5618V25.332Z" fill="url(#paint5_linear_12707_32024)"/>
<path d="M21.8061 25.2203L15.6051 28.6469L9.40332 25.2203L15.6051 21.793L21.8061 25.2203Z" fill="url(#paint6_linear_12707_32024)"/>
<path d="M21.8035 25.2188L15.6025 28.6453V34.8758L21.8035 31.4485V25.2188Z" fill="url(#paint7_linear_12707_32024)"/>
<path d="M9.40332 25.2188L15.6051 28.6453V34.8758L9.40332 31.4485V25.2188Z" fill="url(#paint8_linear_12707_32024)"/>
<path d="M29.0796 29.407L22.8778 32.8344L16.6768 29.407L22.8778 25.9805L29.0796 29.407Z" fill="url(#paint9_linear_12707_32024)"/>
<path d="M29.0778 29.4062L22.876 32.8336V39.0633L29.0778 35.636V29.4062Z" fill="url(#paint10_linear_12707_32024)"/>
<path d="M16.6768 29.4062L22.8778 32.8336V39.0633L16.6768 35.636V29.4062Z" fill="url(#paint11_linear_12707_32024)"/>
<path d="M29.1668 11.7969V18.3443L22.9658 21.7708V15.2242L29.1668 11.7969Z" fill="url(#paint12_linear_12707_32024)"/>
<path d="M16.7627 11.7969V18.3443L22.9637 21.7716V15.2242L16.7627 11.7969Z" fill="url(#paint13_linear_12707_32024)"/>
<path d="M29.1647 11.7977L22.9637 15.225L16.7627 11.7977L22.9637 8.37109L29.1647 11.7977Z" fill="url(#paint14_linear_12707_32024)"/>
<path d="M27.2202 11.8L22.9524 14.1586L18.6846 11.8L22.9524 9.44141L27.2202 11.8Z" fill="white"/>
<path d="M21.8035 15.9023V22.4498L15.6025 25.8763V19.3297L21.8035 15.9023Z" fill="url(#paint15_linear_12707_32024)"/>
<path d="M9.40332 15.9023V22.4498L15.6051 25.8763V19.3297L9.40332 15.9023Z" fill="url(#paint16_linear_12707_32024)"/>
<path d="M21.8061 15.9L15.6051 19.3274L9.40332 15.9L15.6051 12.4727L21.8061 15.9Z" fill="url(#paint17_linear_12707_32024)"/>
<path d="M19.8561 15.9016L15.5891 18.2602L11.3213 15.9016L15.5891 13.543L19.8561 15.9016Z" fill="white"/>
<path d="M36.5809 15.9023V22.4498L30.3799 25.8763V19.3297L36.5809 15.9023Z" fill="url(#paint18_linear_12707_32024)"/>
<path d="M24.1768 15.9023V22.4498L30.3778 25.8763V19.3297L24.1768 15.9023Z" fill="url(#paint19_linear_12707_32024)"/>
<path d="M36.5788 15.9L30.3778 19.3274L24.1768 15.9L30.3778 12.4727L36.5788 15.9Z" fill="url(#paint20_linear_12707_32024)"/>
<path d="M34.6304 15.9016L30.3626 18.2602L26.0947 15.9016L30.3626 13.543L34.6304 15.9016Z" fill="white"/>
<path d="M29.1668 20.0078V26.5544L22.9658 29.9818V23.4344L29.1668 20.0078Z" fill="url(#paint21_linear_12707_32024)"/>
<path d="M16.7627 20.0078V26.5544L22.9637 29.9818V23.4344L16.7627 20.0078Z" fill="url(#paint22_linear_12707_32024)"/>
<path d="M29.1647 20.0094L22.9637 23.4359L16.7627 20.0094L22.9637 16.582L29.1647 20.0094Z" fill="url(#paint23_linear_12707_32024)"/>
<path d="M27.2202 20.0109L22.9524 22.3687L18.6846 20.0109L22.9524 17.6523L27.2202 20.0109Z" fill="white"/>
<path d="M27.221 20.0102L31.781 8.98828H14.5205L18.6854 20.0102L22.9532 22.3681L27.221 20.0102Z" fill="url(#paint24_radial_12707_32024)"/>
<path d="M27.2249 11.8024L31.7849 0.78125H14.5244L18.6893 11.8024L22.9571 14.161L27.2249 11.8024Z" fill="url(#paint25_radial_12707_32024)"/>
<defs>
<radialGradient id="paint0_radial_12707_32024" cx="0" cy="0" r="1" gradientUnits="userSpaceOnUse" gradientTransform="translate(37.0014 36.3609) scale(58.9131)">
<stop offset="0.47" stop-color="#7EF9E1" stop-opacity="0"/>
<stop offset="0.52" stop-color="#7EF9E1" stop-opacity="0.01"/>
<stop offset="0.55" stop-color="#7DF7E2" stop-opacity="0.06"/>
<stop offset="0.59" stop-color="#7DF5E2" stop-opacity="0.13"/>
<stop offset="0.63" stop-color="#7BF1E3" stop-opacity="0.23"/>
<stop offset="0.66" stop-color="#7AEDE5" stop-opacity="0.36"/>
<stop offset="0.69" stop-color="#78E7E6" stop-opacity="0.53"/>
<stop offset="0.72" stop-color="#76E1E9" stop-opacity="0.72"/>
<stop offset="0.75" stop-color="#73D9EB" stop-opacity="0.96"/>
<stop offset="1" stop-color="#25C9ED"/>
</radialGradient>
<radialGradient id="paint1_radial_12707_32024" cx="0" cy="0" r="1" gradientUnits="userSpaceOnUse" gradientTransform="translate(15.6006 5.66708) rotate(-62.47) scale(66.036)">
<stop offset="0.47" stop-color="#7EF9E1" stop-opacity="0"/>
<stop offset="0.5" stop-color="#7EF9E1" stop-opacity="0.01"/>
<stop offset="0.53" stop-color="#7DF7E2" stop-opacity="0.06"/>
<stop offset="0.56" stop-color="#7DF5E2" stop-opacity="0.13"/>
<stop offset="0.59" stop-color="#7BF1E3" stop-opacity="0.23"/>
<stop offset="0.61" stop-color="#7AEDE5" stop-opacity="0.36"/>
<stop offset="0.64" stop-color="#78E7E6" stop-opacity="0.53"/>
<stop offset="0.66" stop-color="#76E1E9" stop-opacity="0.72"/>
<stop offset="0.69" stop-color="#73D9EB" stop-opacity="0.96"/>
<stop offset="1" stop-color="#25C9ED"/>
</radialGradient>
<radialGradient id="paint2_radial_12707_32024" cx="0" cy="0" r="1" gradientUnits="userSpaceOnUse" gradientTransform="translate(15.6006 5.66708) rotate(-62.47) scale(66.036)">
<stop offset="0.47" stop-color="#7EF9E1" stop-opacity="0"/>
<stop offset="0.49" stop-color="#7EF9E1" stop-opacity="0.01"/>
<stop offset="0.51" stop-color="#7DF7E2" stop-opacity="0.06"/>
<stop offset="0.53" stop-color="#7DF5E2" stop-opacity="0.13"/>
<stop offset="0.55" stop-color="#7BF1E3" stop-opacity="0.23"/>
<stop offset="0.57" stop-color="#7AEDE5" stop-opacity="0.36"/>
<stop offset="0.58" stop-color="#78E7E6" stop-opacity="0.53"/>
<stop offset="0.6" stop-color="#76E1E9" stop-opacity="0.72"/>
<stop offset="0.61" stop-color="#73D9EB" stop-opacity="0.96"/>
<stop offset="1" stop-color="#25C9ED"/>
</radialGradient>
<linearGradient id="paint3_linear_12707_32024" x1="30.5941" y1="29.975" x2="30.1942" y2="21.4018" gradientUnits="userSpaceOnUse">
<stop stop-color="#4FFFE0"/>
<stop offset="1" stop-color="#00B6B9"/>
</linearGradient>
<linearGradient id="paint4_linear_12707_32024" x1="33.6947" y1="36.1648" x2="33.3587" y2="26.76" gradientUnits="userSpaceOnUse">
<stop stop-color="#0A4192"/>
<stop offset="1" stop-color="#00B6B9"/>
</linearGradient>
<linearGradient id="paint5_linear_12707_32024" x1="24.152" y1="35.6229" x2="29.052" y2="27.0577" gradientUnits="userSpaceOnUse">
<stop stop-color="#0A4192"/>
<stop offset="1" stop-color="#00B6B9"/>
</linearGradient>
<linearGradient id="paint6_linear_12707_32024" x1="15.8214" y1="29.8617" x2="15.4215" y2="21.2877" gradientUnits="userSpaceOnUse">
<stop stop-color="#4FFFE0"/>
<stop offset="1" stop-color="#00B6B9"/>
</linearGradient>
<linearGradient id="paint7_linear_12707_32024" x1="18.9174" y1="36.0515" x2="18.5813" y2="26.6467" gradientUnits="userSpaceOnUse">
<stop stop-color="#0A4192"/>
<stop offset="1" stop-color="#00B6B9"/>
</linearGradient>
<linearGradient id="paint8_linear_12707_32024" x1="9.37938" y1="35.5096" x2="14.2794" y2="26.9444" gradientUnits="userSpaceOnUse">
<stop stop-color="#0A4192"/>
<stop offset="1" stop-color="#00B6B9"/>
</linearGradient>
<linearGradient id="paint9_linear_12707_32024" x1="23.0949" y1="34.0484" x2="22.695" y2="25.4752" gradientUnits="userSpaceOnUse">
<stop stop-color="#4FFFE0"/>
<stop offset="1" stop-color="#00B6B9"/>
</linearGradient>
<linearGradient id="paint10_linear_12707_32024" x1="26.1916" y1="40.239" x2="25.8556" y2="30.8342" gradientUnits="userSpaceOnUse">
<stop stop-color="#0A4192"/>
<stop offset="1" stop-color="#00B6B9"/>
</linearGradient>
<linearGradient id="paint11_linear_12707_32024" x1="16.6528" y1="39.6971" x2="21.5528" y2="31.1319" gradientUnits="userSpaceOnUse">
<stop stop-color="#0A4192"/>
<stop offset="1" stop-color="#00B6B9"/>
</linearGradient>
<linearGradient id="paint12_linear_12707_32024" x1="26.6598" y1="22.7574" x2="25.5671" y2="11.7538" gradientUnits="userSpaceOnUse">
<stop stop-color="#4FFFE0"/>
<stop offset="1" stop-color="#00B6B9"/>
</linearGradient>
<linearGradient id="paint13_linear_12707_32024" x1="21.788" y1="13.9998" x2="18.3726" y2="18.9397" gradientUnits="userSpaceOnUse">
<stop stop-color="#4FFFE0"/>
<stop offset="1" stop-color="#00B6B9"/>
</linearGradient>
<linearGradient id="paint14_linear_12707_32024" x1="23.3979" y1="16.1724" x2="22.5981" y2="8.11328" gradientUnits="userSpaceOnUse">
<stop stop-color="#4FFFE0"/>
<stop offset="1" stop-color="#7CF8DA"/>
</linearGradient>
<linearGradient id="paint15_linear_12707_32024" x1="19.2957" y1="26.8628" x2="18.203" y2="15.8592" gradientUnits="userSpaceOnUse">
<stop stop-color="#4FFFE0"/>
<stop offset="1" stop-color="#00B6B9"/>
</linearGradient>
<linearGradient id="paint16_linear_12707_32024" x1="14.4294" y1="18.1053" x2="11.0132" y2="23.0452" gradientUnits="userSpaceOnUse">
<stop stop-color="#4FFFE0"/>
<stop offset="1" stop-color="#00B6B9"/>
</linearGradient>
<linearGradient id="paint17_linear_12707_32024" x1="16.0393" y1="20.2748" x2="15.2388" y2="12.2156" gradientUnits="userSpaceOnUse">
<stop stop-color="#4FFFE0"/>
<stop offset="1" stop-color="#7CF8DA"/>
</linearGradient>
<linearGradient id="paint18_linear_12707_32024" x1="34.0738" y1="26.8628" x2="32.9811" y2="15.8592" gradientUnits="userSpaceOnUse">
<stop stop-color="#4FFFE0"/>
<stop offset="1" stop-color="#7CF8DA"/>
</linearGradient>
<linearGradient id="paint19_linear_12707_32024" x1="29.2021" y1="18.1053" x2="25.7867" y2="23.0452" gradientUnits="userSpaceOnUse">
<stop stop-color="#4FFFE0"/>
<stop offset="1" stop-color="#00B6B9"/>
</linearGradient>
<linearGradient id="paint20_linear_12707_32024" x1="30.812" y1="20.2748" x2="30.0122" y2="12.2156" gradientUnits="userSpaceOnUse">
<stop stop-color="#4FFFE0"/>
<stop offset="1" stop-color="#7CF8DA"/>
</linearGradient>
<linearGradient id="paint21_linear_12707_32024" x1="26.6598" y1="30.9675" x2="25.5671" y2="19.9647" gradientUnits="userSpaceOnUse">
<stop stop-color="#4FFFE0"/>
<stop offset="1" stop-color="#7CF8DA"/>
</linearGradient>
<linearGradient id="paint22_linear_12707_32024" x1="21.788" y1="22.2108" x2="18.3726" y2="27.1507" gradientUnits="userSpaceOnUse">
<stop stop-color="#4FFFE0"/>
<stop offset="1" stop-color="#00B6B9"/>
</linearGradient>
<linearGradient id="paint23_linear_12707_32024" x1="23.3979" y1="24.3842" x2="22.5981" y2="16.325" gradientUnits="userSpaceOnUse">
<stop stop-color="#4FFFE0"/>
<stop offset="1" stop-color="#7CF8DA"/>
</linearGradient>
<radialGradient id="paint24_radial_12707_32024" cx="0" cy="0" r="1" gradientUnits="userSpaceOnUse" gradientTransform="translate(23.0179 8.43595) scale(16.8893)">
<stop offset="0.51" stop-color="#FFD3FD" stop-opacity="0"/>
<stop offset="1" stop-color="white"/>
</radialGradient>
<radialGradient id="paint25_radial_12707_32024" cx="0" cy="0" r="1" gradientUnits="userSpaceOnUse" gradientTransform="translate(23.021 0.228915) scale(16.8893 16.8893)">
<stop offset="0.51" stop-color="#FFD3FD" stop-opacity="0"/>
<stop offset="1" stop-color="white"/>
</radialGradient>
</defs>
</svg>
