<svg width="45" height="46" viewBox="0 0 45 46" fill="none" xmlns="http://www.w3.org/2000/svg">
<path d="M22.499 45.7813C34.9254 45.7813 44.999 35.7077 44.999 23.2813C44.999 10.8548 34.9254 0.78125 22.499 0.78125C10.0726 0.78125 -0.000976562 10.8548 -0.000976562 23.2813C-0.000976562 35.7077 10.0726 45.7813 22.499 45.7813Z" fill="url(#paint0_radial_12707_32107)"/>
<path d="M22.499 45.7813C34.9254 45.7813 44.999 35.7077 44.999 23.2813C44.999 10.8548 34.9254 0.78125 22.499 0.78125C10.0726 0.78125 -0.000976562 10.8548 -0.000976562 23.2813C-0.000976562 35.7077 10.0726 45.7813 22.499 45.7813Z" fill="url(#paint1_radial_12707_32107)"/>
<path d="M22.499 45.7813C34.9254 45.7813 44.999 35.7077 44.999 23.2813C44.999 10.8548 34.9254 0.78125 22.499 0.78125C10.0726 0.78125 -0.000976562 10.8548 -0.000976562 23.2813C-0.000976562 35.7077 10.0726 45.7813 22.499 45.7813Z" fill="url(#paint2_radial_12707_32107)"/>
<path d="M34.7714 16.2427L34.7282 30.3911L22.4541 37.4289L10.2217 30.316L10.2649 16.1668L10.3261 16.1325L22.539 9.12891L34.769 16.2427H34.7714Z" fill="url(#paint3_linear_12707_32107)"/>
<path d="M34.7694 16.2497L22.5581 23.25L10.2686 16.1722L22.5394 9.13672L34.7694 16.2497Z" fill="url(#paint4_linear_12707_32107)"/>
<path d="M34.7487 16.2419L28.6876 19.7204L22.5889 16.2035L28.6786 12.707L34.7487 16.2419Z" fill="url(#paint5_linear_12707_32107)"/>
<path d="M28.6787 12.7116L22.5923 16.2015L16.4561 12.6332L22.5458 9.13672L28.6787 12.7116Z" fill="url(#paint6_linear_12707_32107)"/>
<path d="M28.676 19.7455L22.5586 23.2502L16.3701 19.6696L22.5896 16.1992L28.676 19.7455Z" fill="url(#paint7_linear_12707_32107)"/>
<path d="M22.5925 16.2016L16.3387 19.6802L10.3037 16.1625L16.4587 12.6211L22.5925 16.2016Z" fill="url(#paint8_linear_12707_32107)"/>
<path d="M22.5597 23.2464L22.4561 37.4324L34.7301 30.3945L34.7709 16.2461L22.5597 23.2464Z" fill="url(#paint9_linear_12707_32107)"/>
<path d="M22.5646 23.2436L22.5107 30.3598L28.6527 26.8339L28.6739 19.7422L22.5646 23.2436Z" fill="url(#paint10_linear_12707_32107)"/>
<g opacity="0.71">
<path d="M28.675 19.7385L28.6514 26.836L34.7411 23.3452L34.7688 16.2461L28.675 19.7385Z" fill="url(#paint11_linear_12707_32107)"/>
</g>
<g opacity="0.53">
<path d="M28.6539 26.8345L28.6318 33.883L34.7305 30.3931L34.7436 23.3438L28.6539 26.8345Z" fill="url(#paint12_linear_12707_32107)"/>
</g>
<g opacity="0.52">
<path d="M22.5384 30.3381L22.4951 37.4013L28.6362 33.8746L28.6509 26.8359L22.5384 30.3381Z" fill="url(#paint13_linear_12707_32107)"/>
</g>
<g opacity="0.74">
<path d="M22.5551 23.2474L22.5094 30.3604L16.3389 26.7945L16.3405 19.6562L22.5551 23.2474Z" fill="url(#paint14_linear_12707_32107)"/>
</g>
<g opacity="0.71">
<path d="M16.3428 19.6547L16.3404 26.7929L10.249 23.2956L10.2678 16.168L16.3428 19.6547Z" fill="url(#paint15_linear_12707_32107)"/>
</g>
<g opacity="0.53">
<path d="M16.3375 26.7958L16.3506 33.8859L10.2217 30.3184L10.2462 23.2969L16.3375 26.7958Z" fill="url(#paint16_linear_12707_32107)"/>
</g>
<g opacity="0.52">
<path d="M22.5094 30.3572L22.4547 37.4285L16.3511 33.8831L16.3389 26.793L22.5094 30.3572Z" fill="url(#paint17_linear_12707_32107)"/>
</g>
<path d="M20.2429 23.6088L20.2266 28.9837L15.5632 31.6569L10.917 28.9551L10.9333 23.5802L10.9562 23.5672L15.5959 20.9062L20.2421 23.6088H20.2429Z" fill="url(#paint18_linear_12707_32107)"/>
<path d="M20.242 23.6088L15.6031 26.2681L10.9561 23.5672L15.5958 20.9062L20.242 23.6088Z" fill="url(#paint19_linear_12707_32107)"/>
<path d="M15.6054 26.2687L15.5654 31.6574L20.2288 28.9843L20.2443 23.6094L15.6054 26.2687Z" fill="url(#paint20_linear_12707_32107)"/>
<path d="M40.3671 27.3588L40.3516 32.7329L35.6882 35.4069L31.042 32.7043L31.0583 27.3294L31.0812 27.3164L35.7209 24.6562L40.3663 27.3588H40.3671Z" fill="url(#paint21_linear_12707_32107)"/>
<path d="M40.3662 27.3588L35.7281 30.0181L31.0811 27.3164L35.7208 24.6562L40.3662 27.3588Z" fill="url(#paint22_linear_12707_32107)"/>
<path d="M35.7304 30.0187L35.6904 35.4074L40.3538 32.7335L40.3685 27.3594L35.7304 30.0187Z" fill="url(#paint23_linear_12707_32107)"/>
<path d="M22.5925 16.2016L16.3387 19.6802L10.3037 16.1625L16.4587 12.6211L22.5925 16.2016Z" fill="url(#paint24_radial_12707_32107)"/>
<defs>
<radialGradient id="paint0_radial_12707_32107" cx="0" cy="0" r="1" gradientUnits="userSpaceOnUse" gradientTransform="translate(35.4161 8.03129) scale(67.5098)">
<stop offset="0.47" stop-color="#D67EF9" stop-opacity="0"/>
<stop offset="0.49" stop-color="#D67EF9" stop-opacity="0.01"/>
<stop offset="0.51" stop-color="#D77DF8" stop-opacity="0.06"/>
<stop offset="0.53" stop-color="#D97DF6" stop-opacity="0.13"/>
<stop offset="0.55" stop-color="#DB7BF4" stop-opacity="0.23"/>
<stop offset="0.57" stop-color="#DE7AF2" stop-opacity="0.36"/>
<stop offset="0.58" stop-color="#E278EF" stop-opacity="0.53"/>
<stop offset="0.6" stop-color="#E676EB" stop-opacity="0.72"/>
<stop offset="0.61" stop-color="#EB73E6" stop-opacity="0.96"/>
<stop offset="1" stop-color="#ED72E4"/>
</radialGradient>
<radialGradient id="paint1_radial_12707_32107" cx="0" cy="0" r="1" gradientUnits="userSpaceOnUse" gradientTransform="translate(35.4161 8.03129) scale(67.5098)">
<stop offset="0.47" stop-color="#D67EF9" stop-opacity="0"/>
<stop offset="0.49" stop-color="#D67EF9" stop-opacity="0.01"/>
<stop offset="0.51" stop-color="#D77DF8" stop-opacity="0.06"/>
<stop offset="0.53" stop-color="#D97DF6" stop-opacity="0.13"/>
<stop offset="0.55" stop-color="#DB7BF4" stop-opacity="0.23"/>
<stop offset="0.57" stop-color="#DE7AF2" stop-opacity="0.36"/>
<stop offset="0.58" stop-color="#E278EF" stop-opacity="0.53"/>
<stop offset="0.6" stop-color="#E676EB" stop-opacity="0.72"/>
<stop offset="0.61" stop-color="#EB73E6" stop-opacity="0.96"/>
<stop offset="1" stop-color="#ED72E4"/>
</radialGradient>
<radialGradient id="paint2_radial_12707_32107" cx="0" cy="0" r="1" gradientUnits="userSpaceOnUse" gradientTransform="translate(3.10894 38.0574) rotate(91.1458) scale(67.5233)">
<stop offset="0.47" stop-color="#D67EF9" stop-opacity="0"/>
<stop offset="0.52" stop-color="#D67EF9" stop-opacity="0.01"/>
<stop offset="0.55" stop-color="#D77DF8" stop-opacity="0.06"/>
<stop offset="0.59" stop-color="#D97DF6" stop-opacity="0.13"/>
<stop offset="0.63" stop-color="#DB7BF4" stop-opacity="0.23"/>
<stop offset="0.66" stop-color="#DE7AF2" stop-opacity="0.36"/>
<stop offset="0.69" stop-color="#E278EF" stop-opacity="0.53"/>
<stop offset="0.72" stop-color="#E676EB" stop-opacity="0.72"/>
<stop offset="0.75" stop-color="#EB73E6" stop-opacity="0.96"/>
<stop offset="1" stop-color="#ED72E4"/>
</radialGradient>
<linearGradient id="paint3_linear_12707_32107" x1="10.2217" y1="23.2789" x2="34.7714" y2="23.2789" gradientUnits="userSpaceOnUse">
<stop stop-color="#6BC8FF"/>
<stop offset="1" stop-color="#3C72B8"/>
</linearGradient>
<linearGradient id="paint4_linear_12707_32107" x1="10.2686" y1="16.1934" x2="34.7694" y2="16.1934" gradientUnits="userSpaceOnUse">
<stop stop-color="#ED72E4"/>
<stop offset="1" stop-color="#6BC8FF"/>
</linearGradient>
<linearGradient id="paint5_linear_12707_32107" x1="34.2354" y1="15.7686" x2="24.1099" y2="16.5805" gradientUnits="userSpaceOnUse">
<stop stop-color="#ED72E4"/>
<stop offset="1" stop-color="#DFBFDB"/>
</linearGradient>
<linearGradient id="paint6_linear_12707_32107" x1="27.276" y1="11.5855" x2="19.4001" y2="13.3978" gradientUnits="userSpaceOnUse">
<stop stop-color="#ED72E4"/>
<stop offset="1" stop-color="#D67EF9"/>
</linearGradient>
<linearGradient id="paint7_linear_12707_32107" x1="18.694" y1="21.5023" x2="29.882" y2="16.3771" gradientUnits="userSpaceOnUse">
<stop stop-color="#ED72E4"/>
<stop offset="0.66" stop-color="#D67EF9"/>
<stop offset="1" stop-color="#4C75BA"/>
</linearGradient>
<linearGradient id="paint8_linear_12707_32107" x1="0.415589" y1="15.0372" x2="25.5414" y2="16.7875" gradientUnits="userSpaceOnUse">
<stop stop-color="#ED72E4"/>
<stop offset="0.66" stop-color="#D67EF9"/>
<stop offset="1" stop-color="#4C75BA"/>
</linearGradient>
<linearGradient id="paint9_linear_12707_32107" x1="22.4552" y1="26.8392" x2="34.7709" y2="26.8392" gradientUnits="userSpaceOnUse">
<stop stop-color="#ED72E4"/>
<stop offset="1" stop-color="#FFEBFC"/>
</linearGradient>
<linearGradient id="paint10_linear_12707_32107" x1="36.5171" y1="32.1941" x2="20.2668" y2="21.5692" gradientUnits="userSpaceOnUse">
<stop stop-color="#ED72E4"/>
<stop offset="0.52" stop-color="#D67EF9"/>
<stop offset="1" stop-color="#4C75BA"/>
</linearGradient>
<linearGradient id="paint11_linear_12707_32107" x1="29.9863" y1="25.1167" x2="33.806" y2="17.1861" gradientUnits="userSpaceOnUse">
<stop stop-color="#ED72E4"/>
<stop offset="1" stop-color="#FFEBFC"/>
</linearGradient>
<linearGradient id="paint12_linear_12707_32107" x1="25.5123" y1="25.7297" x2="33.6983" y2="29.5526" gradientUnits="userSpaceOnUse">
<stop stop-color="#ED72E4"/>
<stop offset="1" stop-color="#FFEBFC"/>
</linearGradient>
<linearGradient id="paint13_linear_12707_32107" x1="30.2201" y1="24.8825" x2="22.8452" y2="36.3822" gradientUnits="userSpaceOnUse">
<stop stop-color="#ED72E4"/>
<stop offset="0.74" stop-color="#D67EF9"/>
<stop offset="1" stop-color="#8760A8"/>
</linearGradient>
<linearGradient id="paint14_linear_12707_32107" x1="15.6314" y1="29.9777" x2="24.5061" y2="18.3531" gradientUnits="userSpaceOnUse">
<stop stop-color="#6BC8FF"/>
<stop offset="0.71" stop-color="#3C72B8"/>
</linearGradient>
<linearGradient id="paint15_linear_12707_32107" x1="14.4171" y1="19.2092" x2="11.6395" y2="24.8754" gradientUnits="userSpaceOnUse">
<stop stop-color="#6BC8FF"/>
<stop offset="1" stop-color="#3C72B8"/>
</linearGradient>
<linearGradient id="paint16_linear_12707_32107" x1="13.116" y1="22.1724" x2="13.3657" y2="31.9227" gradientUnits="userSpaceOnUse">
<stop stop-color="#6BC8FF"/>
<stop offset="1" stop-color="#3C72B8"/>
</linearGradient>
<linearGradient id="paint17_linear_12707_32107" x1="21.1891" y1="28.6395" x2="18.5779" y2="33.6954" gradientUnits="userSpaceOnUse">
<stop stop-color="#6BC8FF"/>
<stop offset="1" stop-color="#3C72B8"/>
</linearGradient>
<linearGradient id="paint18_linear_12707_32107" x1="18.1181" y1="29.5125" x2="11.9304" y2="21.6374" gradientUnits="userSpaceOnUse">
<stop stop-color="#ED72E4"/>
<stop offset="1" stop-color="#FFEBFC"/>
</linearGradient>
<linearGradient id="paint19_linear_12707_32107" x1="10.9561" y1="23.5876" x2="20.242" y2="23.5876" gradientUnits="userSpaceOnUse">
<stop stop-color="#ED72E4"/>
<stop offset="1" stop-color="#DFBFDB"/>
</linearGradient>
<linearGradient id="paint20_linear_12707_32107" x1="28.7518" y1="36.6235" x2="12.6891" y2="23.3107" gradientUnits="userSpaceOnUse">
<stop stop-color="#ED72E4"/>
<stop offset="0.66" stop-color="#D67EF9"/>
<stop offset="1" stop-color="#4C75BA"/>
</linearGradient>
<linearGradient id="paint21_linear_12707_32107" x1="38.2431" y1="33.2616" x2="32.0554" y2="25.3866" gradientUnits="userSpaceOnUse">
<stop stop-color="#6BC8FF"/>
<stop offset="1" stop-color="#3C72B8"/>
</linearGradient>
<linearGradient id="paint22_linear_12707_32107" x1="31.0811" y1="27.3368" x2="40.367" y2="27.3368" gradientUnits="userSpaceOnUse">
<stop stop-color="#ED72E4"/>
<stop offset="0.52" stop-color="#D67EF9"/>
<stop offset="1" stop-color="#4C75BA"/>
</linearGradient>
<linearGradient id="paint23_linear_12707_32107" x1="48.8768" y1="40.3727" x2="32.8141" y2="27.0607" gradientUnits="userSpaceOnUse">
<stop stop-color="#ED72E4"/>
<stop offset="1" stop-color="#FFEBFC"/>
</linearGradient>
<radialGradient id="paint24_radial_12707_32107" cx="0" cy="0" r="1" gradientUnits="userSpaceOnUse" gradientTransform="translate(10.2898 14.2702) scale(9.55846 9.55847)">
<stop stop-color="#FFFCFD"/>
<stop offset="0.83" stop-color="#4780C2" stop-opacity="0"/>
</radialGradient>
</defs>
</svg>
