<svg width="45" height="46" viewBox="0 0 45 46" fill="none" xmlns="http://www.w3.org/2000/svg">
<path d="M22.499 45.7813C10.0726 45.7813 -0.000976562 35.7077 -0.000976562 23.2813C-0.000976562 10.8548 10.0726 0.78125 22.499 0.78125C34.9254 0.78125 44.999 10.8548 44.999 23.2813C44.999 35.7077 34.9254 45.7813 22.499 45.7813Z" fill="url(#paint0_radial_12707_32071)"/>
<path d="M22.499 45.7813C10.0726 45.7813 -0.000976562 35.7077 -0.000976562 23.2813C-0.000976562 10.8548 10.0726 0.78125 22.499 0.78125C34.9254 0.78125 44.999 10.8548 44.999 23.2813C44.999 35.7077 34.9254 45.7813 22.499 45.7813Z" fill="url(#paint1_radial_12707_32071)"/>
<path d="M22.499 45.7813C10.0726 45.7813 -0.000976562 35.7077 -0.000976562 23.2813C-0.000976562 10.8548 10.0726 0.78125 22.499 0.78125C34.9254 0.78125 44.999 10.8548 44.999 23.2813C44.999 35.7077 34.9254 45.7813 22.499 45.7813Z" fill="url(#paint2_radial_12707_32071)"/>
<path d="M10.2276 16.2427L10.2708 30.3911L22.5449 37.4289L34.7773 30.316L34.7341 16.1668L34.6729 16.1325L22.46 9.12891L10.23 16.2427H10.2276Z" fill="#473184"/>
<path d="M10.2267 16.2497L22.438 23.25L34.7275 16.1722L22.4567 9.13672L10.2267 16.2497Z" fill="url(#paint3_linear_12707_32071)"/>
<path d="M10.2513 16.2419L16.3125 19.7204L22.4111 16.2035L16.3214 12.707L10.2513 16.2419Z" fill="url(#paint4_linear_12707_32071)"/>
<path d="M16.3184 12.7116L22.4048 16.2015L28.541 12.6332L22.4513 9.13672L16.3184 12.7116Z" fill="url(#paint5_linear_12707_32071)"/>
<path d="M16.3201 19.7455L22.4375 23.2502L28.626 19.6696L22.4065 16.1992L16.3201 19.7455Z" fill="url(#paint6_linear_12707_32071)"/>
<path d="M22.4036 16.2016L28.6573 19.6802L34.6924 16.1625L28.5374 12.6211L22.4036 16.2016Z" fill="url(#paint7_linear_12707_32071)"/>
<path d="M22.4413 23.2464L22.5449 37.4324L10.2709 30.3945L10.2301 16.2461L22.4413 23.2464Z" fill="url(#paint8_linear_12707_32071)"/>
<path d="M22.4344 23.2436L22.4883 30.3598L16.3464 26.8339L16.3251 19.7422L22.4344 23.2436Z" fill="url(#paint9_linear_12707_32071)"/>
<g opacity="0.71">
<path d="M16.3279 19.7385L16.3516 26.836L10.2619 23.3452L10.2341 16.2461L16.3279 19.7385Z" fill="url(#paint10_linear_12707_32071)"/>
</g>
<g opacity="0.53">
<path d="M16.3422 26.8345L16.3643 33.883L10.2656 30.3931L10.2525 23.3438L16.3422 26.8345Z" fill="url(#paint11_linear_12707_32071)"/>
</g>
<g opacity="0.52">
<path d="M22.4587 30.3381L22.502 37.4013L16.3608 33.8746L16.3462 26.8359L22.4587 30.3381Z" fill="url(#paint12_linear_12707_32071)"/>
</g>
<g opacity="0.74">
<path d="M22.4362 23.2474L22.4819 30.3604L28.6523 26.7945L28.6507 19.6562L22.4362 23.2474Z" fill="#473184"/>
</g>
<g opacity="0.71">
<path d="M28.6552 19.6547L28.6577 26.7929L34.749 23.2956L34.7303 16.168L28.6552 19.6547Z" fill="#473184"/>
</g>
<g opacity="0.53">
<path d="M28.6625 26.7958L28.6494 33.8859L34.7783 30.3184L34.7538 23.2969L28.6625 26.7958Z" fill="#473184"/>
</g>
<g opacity="0.52">
<path d="M22.4819 30.3572L22.5365 37.4285L28.6401 33.8831L28.6523 26.793L22.4819 30.3572Z" fill="#473184"/>
</g>
<path d="M24.7551 23.6088L24.7715 28.9837L29.4348 31.6569L34.0811 28.9551L34.0647 23.5802L34.0419 23.5672L29.4022 20.9062L24.756 23.6088H24.7551Z" fill="url(#paint13_linear_12707_32071)"/>
<path d="M24.7531 23.6088L29.392 26.2681L34.0391 23.5672L29.3994 20.9062L24.7531 23.6088Z" fill="url(#paint14_linear_12707_32071)"/>
<path d="M29.3946 26.2687L29.4346 31.6574L24.7712 28.9843L24.7557 23.6094L29.3946 26.2687Z" fill="url(#paint15_linear_12707_32071)"/>
<path d="M4.62901 27.3588L4.64451 32.7329L9.30788 35.4069L13.9541 32.7043L13.9378 27.3294L13.9149 27.3164L9.27523 24.6562L4.62901 27.3588Z" fill="#473184"/>
<path d="M4.63384 27.3588L9.2719 30.0181L13.9189 27.3164L9.27925 24.6562L4.63384 27.3588Z" fill="url(#paint16_linear_12707_32071)"/>
<path d="M9.26666 30.0187L9.30664 35.4074L4.64328 32.7335L4.62859 27.3594L9.26666 30.0187Z" fill="url(#paint17_linear_12707_32071)"/>
<path d="M22.4036 16.2016L28.6573 19.6802L34.6924 16.1625L28.5374 12.6211L22.4036 16.2016Z" fill="url(#paint18_radial_12707_32071)"/>
<defs>
<radialGradient id="paint0_radial_12707_32071" cx="0" cy="0" r="1" gradientUnits="userSpaceOnUse" gradientTransform="translate(9.58196 8.03129) rotate(180) scale(67.5098 67.5098)">
<stop offset="0.208333" stop-color="#DB7BF4" stop-opacity="0.23"/>
<stop offset="0.708333" stop-color="#473184"/>
<stop offset="1" stop-color="#473184"/>
</radialGradient>
<radialGradient id="paint1_radial_12707_32071" cx="0" cy="0" r="1" gradientUnits="userSpaceOnUse" gradientTransform="translate(9.58196 8.03129) rotate(180) scale(67.5098 67.5098)">
<stop offset="0.208333" stop-color="#DB7BF4" stop-opacity="0.23"/>
<stop offset="0.708333" stop-color="#473184"/>
<stop offset="1" stop-color="#473184"/>
</radialGradient>
<radialGradient id="paint2_radial_12707_32071" cx="0" cy="0" r="1" gradientUnits="userSpaceOnUse" gradientTransform="translate(41.8891 38.0574) rotate(88.8542) scale(67.5233 67.5233)">
<stop offset="0.302083" stop-color="#714AA3"/>
<stop offset="0.385417" stop-color="#A16FC6"/>
<stop offset="0.47" stop-color="#D67EF9" stop-opacity="0"/>
<stop offset="0.52" stop-color="#D67EF9" stop-opacity="0.01"/>
<stop offset="0.55" stop-color="white" stop-opacity="0.06"/>
<stop offset="0.59" stop-color="#D97DF6" stop-opacity="0.13"/>
<stop offset="0.66" stop-color="#DE7AF2" stop-opacity="0.36"/>
<stop offset="0.69" stop-color="#E278EF" stop-opacity="0.53"/>
<stop offset="0.7199" stop-color="#724BA4"/>
<stop offset="0.72" stop-color="#724BA4"/>
</radialGradient>
<linearGradient id="paint3_linear_12707_32071" x1="34.7275" y1="16.1934" x2="10.2267" y2="16.1934" gradientUnits="userSpaceOnUse">
<stop stop-color="#ED72E4"/>
<stop offset="1" stop-color="#6BC8FF"/>
</linearGradient>
<linearGradient id="paint4_linear_12707_32071" x1="10.7646" y1="15.7686" x2="20.8901" y2="16.5805" gradientUnits="userSpaceOnUse">
<stop stop-color="#ED72E4"/>
<stop offset="1" stop-color="#DFBFDB"/>
</linearGradient>
<linearGradient id="paint5_linear_12707_32071" x1="17.721" y1="11.5855" x2="25.5969" y2="13.3978" gradientUnits="userSpaceOnUse">
<stop stop-color="#ED72E4"/>
<stop offset="1" stop-color="#D67EF9"/>
</linearGradient>
<linearGradient id="paint6_linear_12707_32071" x1="26.302" y1="21.5023" x2="15.1141" y2="16.3771" gradientUnits="userSpaceOnUse">
<stop stop-color="#ED72E4"/>
<stop offset="0.66" stop-color="#D67EF9"/>
<stop offset="1" stop-color="#4C75BA"/>
</linearGradient>
<linearGradient id="paint7_linear_12707_32071" x1="44.5805" y1="15.0372" x2="19.4547" y2="16.7875" gradientUnits="userSpaceOnUse">
<stop stop-color="#ED72E4"/>
<stop offset="0.66" stop-color="#D67EF9"/>
<stop offset="1" stop-color="#4C75BA"/>
</linearGradient>
<linearGradient id="paint8_linear_12707_32071" x1="22.5457" y1="26.8392" x2="10.2301" y2="26.8392" gradientUnits="userSpaceOnUse">
<stop stop-color="#ED72E4"/>
<stop offset="1" stop-color="#FFEBFC"/>
</linearGradient>
<linearGradient id="paint9_linear_12707_32071" x1="8.48188" y1="32.1941" x2="24.7322" y2="21.5692" gradientUnits="userSpaceOnUse">
<stop stop-color="#ED72E4"/>
<stop offset="0.52" stop-color="#D67EF9"/>
<stop offset="1" stop-color="#4C75BA"/>
</linearGradient>
<linearGradient id="paint10_linear_12707_32071" x1="15.0166" y1="25.1167" x2="11.197" y2="17.1861" gradientUnits="userSpaceOnUse">
<stop stop-color="#ED72E4"/>
<stop offset="1" stop-color="#FFEBFC"/>
</linearGradient>
<linearGradient id="paint11_linear_12707_32071" x1="19.4838" y1="25.7297" x2="11.2978" y2="29.5526" gradientUnits="userSpaceOnUse">
<stop stop-color="#ED72E4"/>
<stop offset="1" stop-color="#FFEBFC"/>
</linearGradient>
<linearGradient id="paint12_linear_12707_32071" x1="14.777" y1="24.8825" x2="22.1519" y2="36.3822" gradientUnits="userSpaceOnUse">
<stop stop-color="#ED72E4"/>
<stop offset="0.74" stop-color="#D67EF9"/>
<stop offset="1" stop-color="#8760A8"/>
</linearGradient>
<linearGradient id="paint13_linear_12707_32071" x1="26.88" y1="29.5125" x2="33.0676" y2="21.6374" gradientUnits="userSpaceOnUse">
<stop stop-color="#ED72E4"/>
<stop offset="1" stop-color="#FFEBFC"/>
</linearGradient>
<linearGradient id="paint14_linear_12707_32071" x1="34.0391" y1="23.5876" x2="24.7531" y2="23.5876" gradientUnits="userSpaceOnUse">
<stop stop-color="#ED72E4"/>
<stop offset="1" stop-color="#DFBFDB"/>
</linearGradient>
<linearGradient id="paint15_linear_12707_32071" x1="16.2482" y1="36.6235" x2="32.3109" y2="23.3107" gradientUnits="userSpaceOnUse">
<stop stop-color="#ED72E4"/>
<stop offset="0.66" stop-color="#D67EF9"/>
<stop offset="1" stop-color="#4C75BA"/>
</linearGradient>
<linearGradient id="paint16_linear_12707_32071" x1="13.9189" y1="27.3368" x2="4.63302" y2="27.3368" gradientUnits="userSpaceOnUse">
<stop stop-color="#ED72E4"/>
<stop offset="0.52" stop-color="#D67EF9"/>
<stop offset="1" stop-color="#4C75BA"/>
</linearGradient>
<linearGradient id="paint17_linear_12707_32071" x1="-3.8797" y1="40.3727" x2="12.183" y2="27.0607" gradientUnits="userSpaceOnUse">
<stop stop-color="#ED72E4"/>
<stop offset="1" stop-color="#FFEBFC"/>
</linearGradient>
<radialGradient id="paint18_radial_12707_32071" cx="0" cy="0" r="1" gradientUnits="userSpaceOnUse" gradientTransform="translate(34.7063 14.2702) rotate(180) scale(9.55846 9.55847)">
<stop stop-color="#FFFCFD"/>
<stop offset="0.83" stop-color="#65429A"/>
</radialGradient>
</defs>
</svg>
