<svg width="45" height="46" viewBox="0 0 45 46" fill="none" xmlns="http://www.w3.org/2000/svg">
<path d="M34.7713 16.2426L34.7281 30.3909L22.4541 37.4288L10.2217 30.3159L10.2649 16.1668L10.3261 16.1325L22.5397 9.12891L34.7689 16.2426H34.7713Z" fill="url(#paint0_radial_12707_32058)"/>
<path d="M31.1638 18.3129L31.1336 28.2981L22.4866 33.2625L13.8389 28.245L13.8691 18.2599L13.9123 18.2354L22.5315 13.293L31.1622 18.3129H31.1638Z" fill="url(#paint1_radial_12707_32058)"/>
<path d="M34.7738 16.2426L22.5626 23.2429L10.3311 16.1325L22.5447 9.12891L34.7738 16.2426Z" fill="url(#paint2_radial_12707_32058)"/>
<path d="M22.5597 23.2464L22.4561 37.4322L34.7301 30.3944L34.7709 16.2461L22.5597 23.2464Z" fill="url(#paint3_radial_12707_32058)"/>
<path d="M22.5593 23.2466L22.4834 33.266L31.1304 28.3016L31.1605 18.3164L22.5593 23.2466Z" fill="url(#paint4_radial_12707_32058)"/>
<path d="M22.4989 45.781C34.9253 45.781 44.9988 35.7075 44.9988 23.2811C44.9988 10.8548 34.9253 0.78125 22.4989 0.78125C10.0726 0.78125 -0.000976562 10.8548 -0.000976562 23.2811C-0.000976562 35.7075 10.0726 45.781 22.4989 45.781Z" fill="url(#paint5_radial_12707_32058)"/>
<path d="M22.4989 45.781C34.9253 45.781 44.9988 35.7075 44.9988 23.2811C44.9988 10.8548 34.9253 0.78125 22.4989 0.78125C10.0726 0.78125 -0.000976562 10.8548 -0.000976562 23.2811C-0.000976562 35.7075 10.0726 45.781 22.4989 45.781Z" fill="url(#paint6_radial_12707_32058)"/>
<defs>
<radialGradient id="paint0_radial_12707_32058" cx="0" cy="0" r="1" gradientUnits="userSpaceOnUse" gradientTransform="translate(19.7923 18.2859) scale(18.6427 18.6427)">
<stop offset="0.08" stop-color="#4C2C7E"/>
<stop offset="0.23" stop-color="#723586"/>
<stop offset="0.54" stop-color="#BA519D"/>
<stop offset="1" stop-color="#FFD300"/>
</radialGradient>
<radialGradient id="paint1_radial_12707_32058" cx="0" cy="0" r="1" gradientUnits="userSpaceOnUse" gradientTransform="translate(19.4846 17.7662) scale(14.7921)">
<stop offset="0.08" stop-color="#4C2C7E"/>
<stop offset="0.23" stop-color="#723586"/>
<stop offset="0.54" stop-color="#BA519D"/>
<stop offset="1" stop-color="#FFD300"/>
</radialGradient>
<radialGradient id="paint2_radial_12707_32058" cx="0" cy="0" r="1" gradientUnits="userSpaceOnUse" gradientTransform="translate(22.139 7.46313) rotate(177.709) scale(35.0655 14.0318)">
<stop offset="0.08" stop-color="#4C2C7E"/>
<stop offset="0.54" stop-color="#BA519D"/>
<stop offset="1" stop-color="#FBB857"/>
</radialGradient>
<radialGradient id="paint3_radial_12707_32058" cx="0" cy="0" r="1" gradientUnits="userSpaceOnUse" gradientTransform="translate(24.9424 19.9017) scale(19.0622 19.0622)">
<stop offset="0.08" stop-color="#4C2C7E"/>
<stop offset="0.23" stop-color="#723586"/>
<stop offset="0.54" stop-color="#BA519D"/>
<stop offset="1" stop-color="#FFD300"/>
</radialGradient>
<radialGradient id="paint4_radial_12707_32058" cx="0" cy="0" r="1" gradientUnits="userSpaceOnUse" gradientTransform="translate(30.3005 16.7293) scale(16.1254 16.1254)">
<stop offset="0.08" stop-color="#4C2C7E"/>
<stop offset="0.23" stop-color="#723586"/>
<stop offset="0.54" stop-color="#BA519D"/>
<stop offset="1" stop-color="#FFD300"/>
</radialGradient>
<radialGradient id="paint5_radial_12707_32058" cx="0" cy="0" r="1" gradientUnits="userSpaceOnUse" gradientTransform="translate(30.7493 10.2809) scale(39.2895)">
<stop offset="0.08" stop-color="#4C2C7E" stop-opacity="0"/>
<stop offset="0.68" stop-color="#BA519D" stop-opacity="0.1"/>
<stop offset="1" stop-color="#FBB857"/>
</radialGradient>
<radialGradient id="paint6_radial_12707_32058" cx="0" cy="0" r="1" gradientUnits="userSpaceOnUse" gradientTransform="translate(20.8434 30.6584) rotate(163.191) scale(39.4013)">
<stop offset="0.08" stop-color="#4C2C7E" stop-opacity="0"/>
<stop offset="0.68" stop-color="#BA519D" stop-opacity="0.1"/>
<stop offset="1" stop-color="#FBB857"/>
</radialGradient>
</defs>
</svg>
